<?xml version="1.0" encoding="UTF-8" standalone="no"?>
<!DOCTYPE svg PUBLIC "-//W3C//DTD SVG 1.1//EN"
"http://www.w3.org/Graphics/SVG/1.1/DTD/svg11.dtd">
<svg version="1.1" xmlns="http://www.w3.org/2000/svg" xmlns:xlink="http://www.w3.org/1999/xlink">
<defs>
<clipPath id="c0_4"><path d="M0.5,1210.5L0.5,0.5l935,0l0,1210Z" /></clipPath>
<style type="text/css"><![CDATA[
.g8_4{
fill: #D0D7DC;
}
.g2_4{
fill: #E8E9EA;
}
.g6_4{
fill: none;
stroke: #45555F;
stroke-width: 2;
stroke-linecap: butt;
stroke-linejoin: miter;
}
.g3_4{
fill: #95A3AD;
}
.g4_4{
fill: none;
stroke: #231F20;
stroke-width: 1;
stroke-linecap: butt;
stroke-linejoin: miter;
stroke-miterlimit: 4;
stroke-dasharray: 8,8,8,8;
}
.g5_4{
fill: none;
stroke: #231F20;
stroke-width: 1;
stroke-linecap: butt;
stroke-linejoin: miter;
stroke-miterlimit: 4;
stroke-dasharray: 8,8,8,8,8,8;
}
.g7_4{
fill: none;
stroke: #95A3AD;
stroke-width: 1;
stroke-linecap: butt;
stroke-linejoin: miter;
stroke-miterlimit: 4;
}
.g1_4{
fill: #00447B;
}
]]></style>
</defs>
<path d="M107.5,31.5l0,3l-4.8,0l0,-3.1l-8.7,0l0,3.7l-5,0l0,-3.6l-6.6,0l0,28.3C84.1,54.1,89,44,103.3,41.7c10.5,-1.6,11.4,-5.5,12.6,-7.7l0,-2.5Z" class="g1_4" />
<path d="M116.2,36.2c-1.2,2,-2,6,-12.3,7.2C90.8,45.2,85.7,54.1,83.8,59.7c2.8,-3.9,8.1,-6.7,8.4,-6.8l0.5,-0.3c-3.1,3.3,-5.2,6,-6.5,8.1c3.2,-2.4,7.9,-4.5,15,-4.8c16.2,-0.4,15,-19.7,15,-19.7Z" class="g1_4" />
<path d="M82.7,62.8c0,0,-0.9,1.8,-0.5,3.5c0,0,0.5,0.8,1.3,-0.2c0,0,-0.5,-3.7,5,-9.6c0,0,-4.5,2.9,-5.8,6.3Z" class="g1_4" />
<path d="M129.3,33.2l0,9.2l5.2,0c0.4,0,0.8,-0.1,1.1,-0.3c0.4,-0.3,0.6,-0.5,0.7,-0.9l0,4.1c-0.1,-0.4,-0.3,-0.6,-0.6,-0.9c-0.3,-0.1,-0.7,-0.2,-1.1,-0.2l-5.3,0l0,11.6c0,0.7,0.3,0.9,0.7,1.3c0.3,0.4,1.1,0.8,1.2,0.8l-7.5,0c0.1,0,0.9,-0.4,1.2,-0.8c0.5,-0.4,0.6,-0.8,0.6,-1.4l0,-21.5c0,-0.7,-0.2,-1.2,-0.6,-1.7c-0.5,-0.5,-1.5,-1.1,-1.6,-1.1l17.2,0l0,3.3c-0.3,-0.5,-0.6,-0.8,-1.2,-1.1c-0.5,-0.3,-1,-0.4,-1.6,-0.4Z" class="g1_4" />
<path d="M142.2,48.9c0,3.7,1.1,8.3,5.5,8.3c4.1,0,5.3,-4.7,5.2,-8.5c-0.1,-3.6,-1.7,-8.1,-5.4,-8.1c-4.1,0.1,-5.4,4.6,-5.3,8.3m14.3,-0.1c0.1,4.9,-3.8,9.7,-8.9,9.7c-5.3,0,-9,-4.5,-9,-9.6c0,-4.9,3.6,-9.5,9,-9.6c5.1,0,8.9,4.7,8.9,9.5Z" class="g1_4" />
<path d="M163.6,56.5c0,0.3,0.2,0.5,0.4,0.8c0.3,0.2,0.5,0.5,0.8,0.6l-5.5,0c0,0,0.5,-0.3,0.8,-0.6c0.2,-0.2,0.3,-0.5,0.3,-0.8l0,-15.3c0,-0.3,-0.3,-0.5,-0.5,-0.7c-0.4,-0.3,-0.9,-0.4,-1.1,-0.4l4.8,-1.2l0,3.9c1.3,-1.7,3,-3.7,4.8,-3.6c0.7,0,1.1,0.2,1.6,0.4l0,2.9c-0.8,-0.5,-1.5,-0.7,-2.5,-0.7c-1.2,0,-2.8,0.7,-3.9,2.2Z" class="g1_4" />
<path d="M172.9,41.2l4.9,-5l0,3.5l5.5,0l0,1.5l-5.5,0l0,12.1c0,1.9,1.6,3.4,3.6,3.4c1.8,0,2.8,-0.9,2.9,-1c0,0,-0.5,2.8,-4.3,2.8c-3,0,-5.2,-2,-5.2,-5.3l0,-12Z" class="g1_4" />
<path d="M191.7,56.5c0,0.3,0.2,0.5,0.5,0.8c0.2,0.2,0.4,0.5,0.8,0.6l-5.6,0c0.1,0,0.6,-0.3,0.8,-0.6c0.2,-0.2,0.3,-0.5,0.3,-0.8l0,-15.3c0,-0.3,-0.2,-0.5,-0.5,-0.7c-0.3,-0.3,-0.9,-0.4,-1.1,-0.4l4.8,-1.2l0,3.9c1.4,-1.7,3,-3.7,4.8,-3.6c0.7,0,1.1,0.2,1.7,0.4l0,2.9c-0.9,-0.5,-1.6,-0.7,-2.6,-0.7c-1.2,0,-2.7,0.7,-3.9,2.2Z" class="g1_4" />
<path d="M213.5,46c0.3,-1.7,-1.6,-5.2,-4.3,-5.2c-4.1,0,-5.6,4.2,-5.4,5.2Zm3.4,6.5c0,0.1,-0.6,5.9,-8,6c-5,0.1,-8.9,-4.1,-8.9,-9.4c-0.1,-5.1,3.8,-9.6,9.2,-9.5c7,0.2,7.9,6.5,7.9,8l-13.5,0c-1,2.8,1.4,8.4,6.5,8.6c4.4,0.1,6.8,-3.6,6.8,-3.7Z" class="g1_4" />
<path d="M230.2,44.8c0,-0.1,-0.9,-4,-4.6,-4c-1.6,0,-3.3,0.4,-3.3,2.3c0,2.3,3.2,3.6,5.1,4.5c2.5,1.3,4.4,3.9,4.3,5.5c-0.2,3.2,-2.7,5.4,-6.7,5.4c-2.2,0,-4.5,-0.9,-5.4,-1.7l0,-4.9c0,0,1.7,5.3,5.6,5.2c1.3,-0.1,3.5,-1,3.4,-3.4C228.5,52.2,226.9,50.8,225,50c-2.7,-1.2,-5.5,-2.9,-5.5,-5.9c0.1,-3.2,2.9,-4.8,6.1,-4.8c3.1,0.1,4.5,1.6,4.6,1.6Z" class="g1_4" />
<path d="M244.2,44.8c0,-0.1,-0.9,-4,-4.6,-4c-1.6,0,-3.3,0.4,-3.3,2.3c0,2.3,3.2,3.6,5.1,4.5c2.5,1.3,4.4,3.9,4.3,5.5c-0.2,3.2,-2.7,5.4,-6.7,5.4c-2.2,0,-4.5,-0.9,-5.4,-1.7l0,-4.9c0,0,1.7,5.3,5.5,5.2c1.4,-0.1,3.6,-1,3.5,-3.4C242.5,52.2,240.9,50.8,239,50c-2.7,-1.2,-5.5,-2.9,-5.5,-5.9c0.1,-3.2,2.9,-4.8,6.1,-4.8c3.1,0.1,4.5,1.6,4.6,1.6Z" class="g1_4" />
<path d="M124.9,65.8c0,-0.4,0,-0.8,0,-1.2c0.2,0,0.5,0,0.8,0.1c0.2,0,0.5,0,0.8,0c0.4,0,0.8,0,1.2,0c0.3,0,0.6,-0.1,0.7,-0.1c-0.1,0.1,-0.1,0.3,-0.1,0.4c0,0.1,0,0.2,0,0.2c0.1,0.1,0.1,0.2,0.1,0.2c-0.2,0,-0.4,0,-0.6,0c-0.2,0,-0.4,0,-0.6,-0.1c-0.2,0,-0.4,0,-0.5,0c-0.2,0,-0.3,0,-0.4,0c0,0.3,0,0.7,0,1c0,0.3,0,0.6,0,1c0.4,0,0.7,0,1,0c0.4,-0.1,0.7,-0.1,1,-0.1c0,0.1,0,0.2,0,0.2c0,0.1,0,0.2,0,0.2c0,0.1,0,0.1,0,0.2c0,0,0,0.1,0,0.2c-0.7,-0.1,-1.3,-0.1,-2,-0.1l0,0.5c0,0.5,0,0.9,0,1.3c0,0.4,0,0.8,0,1.2c-0.1,-0.1,-0.2,-0.1,-0.3,-0.1l-0.4,0l-0.4,0c-0.1,0,-0.2,0,-0.3,0.1c0,-0.4,0,-0.8,0,-1.2c0,-0.4,0,-0.8,0,-1.3l0,-1.3c0,-0.5,0,-0.9,0,-1.3Z" class="g1_4" />
<path d="M135.2,70.9c-0.3,-0.1,-0.6,-0.3,-0.8,-0.5c-0.3,-0.1,-0.5,-0.4,-0.6,-0.7c-0.2,-0.3,-0.2,-0.7,-0.2,-1.1c0,-0.2,0,-0.4,0,-0.6c0,-0.2,0,-0.4,0,-0.6c0,-0.1,0,-0.3,0,-0.4c0,-0.2,0,-0.3,0,-0.5c0,-0.5,0,-0.9,0,-1.2c0,-0.3,0,-0.5,-0.1,-0.7c0.2,0,0.3,0,0.4,0.1c0.1,0,0.3,0,0.4,0c0.1,0,0.2,0,0.4,0c0.1,-0.1,0.2,-0.1,0.3,-0.1c0,0.6,-0.1,1.2,-0.1,1.7c0,0.5,0,1,0,1.5c0,0.5,0,1,0.1,1.3c0.1,0.4,0.2,0.6,0.4,0.8c0.1,0.2,0.3,0.3,0.5,0.4c0.3,0,0.5,0.1,0.8,0.1c0.4,0,0.7,-0.1,0.9,-0.3c0.2,-0.2,0.3,-0.4,0.4,-0.7c0.2,-0.3,0.2,-0.7,0.2,-1.1c0.1,-0.4,0.1,-0.8,0.1,-1.2c0,-0.4,0,-0.8,0,-1.2c-0.1,-0.4,-0.1,-0.9,-0.1,-1.3c0.1,0,0.2,0,0.2,0.1c0.1,0,0.2,0,0.3,0c0,0,0.1,0,0.2,0c0.1,-0.1,0.1,-0.1,0.2,-0.1c0,0.2,0,0.3,0,0.6c0,0.2,0,0.4,-0.1,0.7c0,0.3,0,0.7,0,1c0,0.4,0,0.7,0,1.1c0,1.1,-0.2,1.8,-0.7,2.3c-0.4,0.4,-1.1,0.7,-2,0.7c-0.4,0,-0.7,-0.1,-1.1,-0.1Z" class="g1_4" />
<path d="M144.7,65.4c0,-0.3,0,-0.6,0,-0.8c0.1,0.1,0.3,0.1,0.4,0.1c0.1,0,0.2,0,0.4,-0.1c0.6,0.8,1.3,1.5,1.9,2.2c0.7,0.7,1.3,1.4,2,2.1l0,-0.7l0,-0.9c0,-0.3,0,-0.6,0,-0.9c0,-0.3,0,-0.6,0,-0.8c0,-0.2,0,-0.4,0,-0.6c0,-0.2,0,-0.3,0,-0.4c0.1,0.1,0.3,0.1,0.4,0.1c0.1,0,0.2,0,0.4,-0.1c-0.1,0.6,-0.1,1.1,-0.1,1.5c0,0.5,0,0.9,0,1.3C150,67.8,150,68.2,150,68.5c0,0.4,0,0.8,0,1.3l0,1.1c-0.1,-0.1,-0.2,-0.1,-0.3,-0.1c-0.2,0,-0.3,0,-0.4,0.1c-1.3,-1.5,-2.6,-3,-4,-4.4c0,0.2,0,0.3,0,0.5c0,0.2,0,0.4,0,0.5l0,1.1c0,0.4,0,0.7,0,0.9c0,0.3,0,0.5,0,0.7c0,0.1,0,0.3,0,0.4c0,0.1,0.1,0.2,0.1,0.3c-0.1,-0.1,-0.2,-0.1,-0.3,-0.1l-0.2,0c-0.1,0,-0.2,0,-0.4,0.1c0,-0.1,0,-0.3,0.1,-0.6c0,-0.3,0,-0.6,0,-1c0,-0.5,0.1,-0.9,0.1,-1.4c0,-0.5,0,-1,0,-1.5c0,-0.4,0,-0.7,0,-1Z" class="g1_4" />
<path d="M157,69l0,0.6c0,0.2,0,0.3,0,0.5c0,0.1,0,0.2,0,0.2c0.1,0,0.2,0,0.4,0.1c0.1,0,0.2,0,0.4,0c0.7,0,1.3,-0.3,1.7,-0.7c0.4,-0.5,0.6,-1.2,0.6,-2.1c0,-0.4,-0.1,-0.8,-0.2,-1.1c-0.1,-0.2,-0.2,-0.5,-0.4,-0.7c-0.2,-0.2,-0.4,-0.4,-0.7,-0.5c-0.2,-0.1,-0.5,-0.2,-0.8,-0.2c-0.2,0,-0.4,0,-0.5,0.1c-0.2,0,-0.3,0,-0.5,0c0,0,0,0.1,0,0.3c0,0.1,0,0.3,0,0.5l0,0.5l0,0.5l0,1.6Zm-1.3,-3.2c0,-0.4,-0.1,-0.8,-0.1,-1.2c0.1,0,0.2,0.1,0.3,0.1c0.2,0,0.3,0,0.5,0c0.2,0,0.4,0,0.6,0c0.3,-0.1,0.6,-0.1,1,-0.1c0.5,0,1,0.1,1.4,0.2c0.4,0.1,0.8,0.2,1.1,0.4c0.3,0.3,0.6,0.6,0.7,0.9c0.2,0.4,0.3,0.9,0.3,1.5c0,0.5,-0.1,0.9,-0.3,1.3c-0.1,0.4,-0.3,0.8,-0.6,1.1c-0.3,0.3,-0.7,0.5,-1,0.6c-0.4,0.2,-0.8,0.3,-1.2,0.3c-0.5,0,-0.9,0,-1.2,-0.1c-0.3,0,-0.6,0,-0.8,0l-0.5,0c-0.1,0,-0.2,0,-0.3,0.1c0,-0.4,0.1,-0.8,0.1,-1.2c0,-0.4,0,-0.8,0,-1.3l0,-1.3c0,-0.5,0,-0.9,0,-1.3Z" class="g1_4" />
<path d="M170.9,68.8c-0.1,0.7,-0.1,1.4,-0.2,2.1c0,-0.1,-0.1,-0.1,-0.2,-0.1l-0.2,0l-0.2,0c-0.1,0,-0.1,0,-0.2,0.1c0.2,-1.1,0.4,-2.1,0.5,-3.1c0.2,-1.1,0.3,-2.1,0.4,-3.2c0.1,0,0.2,0.1,0.2,0.1c0.1,0,0.1,0,0.2,0c0,0,0.1,0,0.2,0c0,0,0.1,-0.1,0.2,-0.1c0.1,0.4,0.3,0.8,0.5,1.1c0.2,0.4,0.3,0.8,0.5,1.2c0.2,0.3,0.4,0.7,0.5,1c0.2,0.4,0.4,0.7,0.6,1.1c0.3,-0.7,0.7,-1.4,1,-2.2c0.4,-0.7,0.7,-1.4,1.1,-2.2c0.1,0.1,0.3,0.1,0.4,0.1c0.1,0,0.2,0,0.4,-0.1c0,0.5,0.1,1.1,0.1,1.7c0.1,0.6,0.2,1.2,0.2,1.8c0.1,0.5,0.2,1.1,0.2,1.6c0.1,0.5,0.2,0.8,0.2,1.2c-0.1,-0.1,-0.2,-0.1,-0.3,-0.1l-0.4,0l-0.4,0c-0.1,0,-0.2,0,-0.4,0.1c0,-0.7,0,-1.3,-0.1,-2.1c-0.1,-0.7,-0.2,-1.4,-0.2,-2.1c-0.4,0.7,-0.7,1.4,-1.1,2.1c-0.3,0.7,-0.6,1.4,-0.9,2.1c-0.1,-0.1,-0.1,-0.1,-0.1,-0.1c-0.1,0,-0.1,0,-0.1,0c-0.1,0,-0.1,0,-0.1,0c0,0,-0.1,0,-0.1,0.1c-0.3,-0.7,-0.6,-1.4,-1,-2.1c-0.3,-0.7,-0.6,-1.3,-1,-2c-0.1,0.7,-0.2,1.3,-0.2,2Z" class="g1_4" />
<path d="M184.4,66.3c-0.2,0.4,-0.3,0.8,-0.5,1.1c-0.1,0.4,-0.3,0.7,-0.4,1.1l1.7,0c-0.2,-0.4,-0.3,-0.7,-0.4,-1.1c-0.2,-0.3,-0.3,-0.7,-0.4,-1.1m3.2,4.6c-0.2,-0.1,-0.3,-0.1,-0.4,-0.1l-0.4,0l-0.4,0c-0.1,0,-0.3,0,-0.4,0.1c-0.1,-0.3,-0.2,-0.6,-0.3,-1c-0.1,-0.3,-0.2,-0.6,-0.3,-0.9c-0.2,0,-0.4,0,-0.6,0c-0.2,0,-0.4,0,-0.6,0c-0.1,0,-0.3,0,-0.5,0c-0.1,0,-0.3,0,-0.4,0c-0.2,0.3,-0.3,0.6,-0.4,0.9c-0.1,0.4,-0.2,0.7,-0.2,1c-0.1,-0.1,-0.2,-0.1,-0.3,-0.1l-0.2,0l-0.2,0c-0.1,0,-0.1,0,-0.2,0.1c0,-0.2,0.1,-0.4,0.3,-0.7c0.1,-0.3,0.2,-0.6,0.4,-0.9c0.1,-0.4,0.3,-0.8,0.4,-1.2c0.2,-0.4,0.4,-0.8,0.5,-1.2c0.2,-0.4,0.4,-0.8,0.5,-1.2c0.2,-0.4,0.3,-0.8,0.5,-1.1c0,0,0.1,0,0.1,0c0.1,0,0.1,0,0.2,0c0.1,0,0.1,0,0.2,0c0,0,0.1,0,0.2,0c0.1,0.5,0.4,1,0.6,1.6c0.2,0.6,0.4,1.2,0.6,1.8c0.3,0.5,0.5,1.1,0.7,1.6c0.2,0.5,0.4,0.9,0.6,1.3Z" class="g1_4" />
<path d="M192.6,65.4c0,-0.3,0,-0.6,-0.1,-0.8c0.2,0.1,0.4,0.1,0.5,0.1c0.1,0,0.2,0,0.4,-0.1c0.6,0.8,1.3,1.5,1.9,2.2c0.7,0.7,1.3,1.4,2,2.1l0,-0.7l0,-0.9c0,-0.3,0,-0.6,0,-0.9c0,-0.3,0,-0.6,0,-0.8c0,-0.2,0,-0.4,0,-0.6c0,-0.2,0,-0.3,-0.1,-0.4c0.2,0.1,0.4,0.1,0.5,0.1c0.1,0,0.2,0,0.4,-0.1C198,65.2,198,65.7,198,66.1c0,0.5,0,0.9,-0.1,1.3c0,0.4,0,0.8,0,1.1c0,0.4,0,0.8,0,1.3l0,1.1c-0.1,-0.1,-0.2,-0.1,-0.4,-0.1c-0.1,0,-0.2,0,-0.3,0.1c-1.3,-1.5,-2.6,-3,-4,-4.4c0,0.2,0,0.3,0,0.5c0,0.2,0,0.4,0,0.5l0,1.1c0,0.4,0,0.7,0,0.9c0,0.3,0,0.5,0,0.7c0,0.1,0,0.3,0,0.4c0,0.1,0.1,0.2,0.1,0.3c-0.1,-0.1,-0.2,-0.1,-0.3,-0.1l-0.2,0c-0.1,0,-0.2,0,-0.4,0.1c0,-0.1,0,-0.3,0.1,-0.6c0,-0.3,0,-0.6,0,-1c0,-0.5,0.1,-0.9,0.1,-1.4c0,-0.5,0,-1,0,-1.5c0,-0.4,0,-0.7,0,-1Z" class="g1_4" />
<path d="M205.3,66.3c-0.1,0.4,-0.3,0.8,-0.4,1.1c-0.2,0.4,-0.3,0.7,-0.4,1.1l1.6,0c-0.1,-0.4,-0.2,-0.7,-0.4,-1.1c-0.1,-0.3,-0.2,-0.7,-0.4,-1.1m3.2,4.6c-0.1,-0.1,-0.2,-0.1,-0.4,-0.1l-0.4,0l-0.3,0c-0.2,0,-0.3,0,-0.4,0.1c-0.1,-0.3,-0.2,-0.6,-0.3,-1c-0.1,-0.3,-0.2,-0.6,-0.4,-0.9c-0.2,0,-0.3,0,-0.5,0c-0.2,0,-0.4,0,-0.6,0c-0.2,0,-0.3,0,-0.5,0c-0.2,0,-0.3,0,-0.5,0c-0.1,0.3,-0.2,0.6,-0.3,0.9c-0.1,0.4,-0.2,0.7,-0.3,1c-0.1,-0.1,-0.1,-0.1,-0.2,-0.1l-0.2,0l-0.2,0c-0.1,0,-0.2,0,-0.3,0.1c0.1,-0.2,0.2,-0.4,0.3,-0.7c0.1,-0.3,0.3,-0.6,0.4,-0.9c0.2,-0.4,0.3,-0.8,0.5,-1.2c0.2,-0.4,0.3,-0.8,0.5,-1.2c0.2,-0.4,0.3,-0.8,0.5,-1.2c0.1,-0.4,0.3,-0.8,0.4,-1.1c0.1,0,0.1,0,0.2,0c0,0,0.1,0,0.2,0c0,0,0.1,0,0.1,0c0.1,0,0.2,0,0.2,0c0.2,0.5,0.4,1,0.6,1.6c0.3,0.6,0.5,1.2,0.7,1.8c0.2,0.5,0.4,1.1,0.7,1.6c0.2,0.5,0.4,0.9,0.5,1.3Z" class="g1_4" />
<path d="M217.5,65.3c-0.3,-0.1,-0.6,-0.2,-1,-0.2c-0.3,0,-0.6,0,-0.9,0.1c-0.2,0.2,-0.5,0.3,-0.7,0.6c-0.2,0.2,-0.4,0.5,-0.5,0.9c-0.2,0.3,-0.2,0.7,-0.2,1.2c0,0.4,0,0.7,0.1,1c0.1,0.3,0.3,0.6,0.5,0.8c0.1,0.2,0.4,0.4,0.6,0.5c0.3,0.2,0.6,0.2,1,0.2c0.1,0,0.1,0,0.2,0c0.1,0,0.2,0,0.3,0c0.1,0,0.2,0,0.3,-0.1c0.1,0,0.1,0,0.2,0c0,-0.1,0,-0.2,0,-0.3c0,-0.1,0,-0.2,0,-0.4c0,-0.4,0,-0.8,0,-1c0,-0.3,-0.1,-0.4,-0.1,-0.5c0.1,0,0.2,0,0.3,0c0.1,0,0.2,0,0.4,0c0.2,0,0.4,0,0.5,0c0.1,0,0.2,0,0.2,0c0,0,0,0.1,0,0.2c0,0.1,0,0.2,0,0.4c0,0.1,0,0.3,0,0.4c0,0.2,0,0.4,0,0.5l0,0.3c0,0.2,0,0.3,0,0.4c0,0.2,0,0.2,0,0.3c-0.4,0.1,-0.8,0.2,-1.2,0.3c-0.4,0,-0.8,0.1,-1.2,0.1c-0.5,0,-1,-0.1,-1.5,-0.2c-0.4,-0.2,-0.8,-0.4,-1.1,-0.6c-0.3,-0.3,-0.6,-0.6,-0.8,-1c-0.1,-0.4,-0.2,-0.8,-0.2,-1.2c0,-0.6,0.1,-1.1,0.3,-1.5c0.2,-0.5,0.4,-0.8,0.8,-1.1c0.3,-0.3,0.7,-0.5,1.2,-0.7c0.4,-0.1,0.9,-0.2,1.4,-0.2c0.5,0,0.9,0.1,1.2,0.2c0.4,0,0.7,0.2,1,0.4c0,0.1,-0.1,0.3,-0.1,0.4c-0.1,0.2,-0.1,0.3,-0.1,0.5l-0.2,0c-0.1,-0.3,-0.4,-0.5,-0.7,-0.7Z" class="g1_4" />
<path d="M224,65.8c0,-0.4,0,-0.8,0,-1.2c0.2,0,0.5,0,0.8,0.1c0.3,0,0.5,0,0.8,0c0.4,0,0.8,0,1.2,0c0.3,0,0.6,-0.1,0.7,-0.1c0,0.1,0,0.3,0,0.4c0,0.1,0,0.2,0,0.2c0,0.1,0,0.2,0,0.2c-0.2,0,-0.4,0,-0.6,0c-0.2,0,-0.4,0,-0.6,-0.1c-0.2,0,-0.4,0,-0.5,0c-0.2,0,-0.3,0,-0.4,0c0,0.3,0,0.7,0,1c0,0.3,0,0.6,0,1c0.4,0,0.7,0,1.1,0c0.3,-0.1,0.6,-0.1,1,-0.1c-0.1,0.1,-0.1,0.2,-0.1,0.2c0,0.1,0,0.2,0,0.2c0,0.1,0,0.1,0,0.2c0,0,0,0.1,0.1,0.2c-0.7,-0.1,-1.4,-0.1,-2.1,-0.1c0,0.2,0,0.4,0,0.6c0,0.2,0,0.4,0,0.6c0,0.4,0,0.7,0,1.1c0.4,0,0.7,0,1,0c0.4,0,0.7,-0.1,1.1,-0.1c0,0.1,0,0.1,0,0.2c0,0,0,0.1,0,0.2c0,0.1,0,0.2,0,0.2c0,0.1,0,0.1,0,0.2c-0.2,-0.1,-0.4,-0.1,-0.6,-0.1c-0.3,0,-0.6,0,-1,0l-0.9,0l-0.5,0c-0.2,0,-0.3,0,-0.3,0c-0.1,0,-0.2,0,-0.2,0.1c0,-0.4,0,-0.8,0,-1.2c0,-0.4,0,-0.8,0,-1.3l0,-1.3c0,-0.5,0,-0.9,0,-1.3Z" class="g1_4" />
<path d="M235.4,65.7c-0.1,-0.2,-0.2,-0.3,-0.3,-0.4c-0.1,0,-0.2,-0.1,-0.4,-0.1c-0.2,0,-0.4,-0.1,-0.7,-0.1c0,0.9,0,1.7,0,2.5c0.1,0,0.1,0,0.1,0c0.1,0,0.1,0,0.1,0c0.4,0,0.7,-0.1,0.9,-0.3c0.2,-0.2,0.3,-0.5,0.3,-1c0,-0.2,0,-0.4,0,-0.6M234,68l0,0.4c0,0.5,0,0.9,0,1.3c0,0.4,0.1,0.8,0.1,1.2c-0.1,-0.1,-0.2,-0.1,-0.4,-0.1l-0.4,0l-0.4,0c-0.1,0,-0.2,0,-0.3,0.1c0,-0.4,0,-0.8,0.1,-1.2c0,-0.4,0,-0.8,0,-1.3l0,-1.3c0,-0.5,0,-0.9,0,-1.3c-0.1,-0.4,-0.1,-0.8,-0.1,-1.2c0.1,0,0.2,0,0.3,0.1c0.2,0,0.3,0,0.4,0c0.2,0,0.4,0,0.6,-0.1c0.2,0,0.5,0,0.8,0c0.2,0,0.4,0,0.6,0c0.1,0.1,0.3,0.1,0.4,0.1c0.1,0,0.2,0.1,0.3,0.1c0.1,0,0.2,0.1,0.3,0.1c0.1,0.2,0.3,0.3,0.4,0.5c0.1,0.2,0.1,0.5,0.1,0.7c0,0.5,-0.1,0.8,-0.3,1.1c-0.3,0.3,-0.6,0.5,-1.1,0.6c0.3,0.5,0.6,1,1,1.5c0.3,0.5,0.6,1.1,1,1.6c-0.2,-0.1,-0.3,-0.1,-0.4,-0.1l-0.5,0l-0.4,0c-0.1,0,-0.2,0,-0.4,0.1L234.1,68Z" class="g1_4" />
<path d="M243.8,65.1c-0.3,0,-0.5,0.1,-0.7,0.2c-0.2,0.2,-0.2,0.4,-0.2,0.6c0,0.2,0,0.4,0.2,0.5c0.1,0.2,0.3,0.3,0.5,0.4c0.2,0.1,0.4,0.2,0.6,0.4c0.3,0.1,0.5,0.2,0.7,0.3c0.2,0.2,0.4,0.4,0.5,0.6c0.1,0.2,0.2,0.5,0.2,0.8c0,0.3,0,0.6,-0.2,0.9c-0.1,0.2,-0.2,0.4,-0.4,0.6c-0.3,0.2,-0.5,0.3,-0.8,0.4c-0.3,0.1,-0.6,0.2,-1,0.2c-0.3,0,-0.6,-0.1,-0.9,-0.1c-0.2,-0.1,-0.4,-0.2,-0.6,-0.3c0.1,-0.2,0.2,-0.4,0.2,-0.6c0,-0.1,0.1,-0.3,0.1,-0.5l0.2,0c0,0.1,0.1,0.2,0.1,0.3c0.1,0.2,0.2,0.3,0.3,0.3c0.1,0.1,0.2,0.2,0.3,0.3c0.2,0,0.4,0,0.5,0c0.4,0,0.7,-0.1,0.8,-0.2c0.2,-0.2,0.3,-0.4,0.3,-0.7c0,-0.2,-0.1,-0.4,-0.2,-0.6c-0.1,-0.1,-0.3,-0.2,-0.5,-0.3c-0.2,-0.1,-0.4,-0.3,-0.7,-0.4c-0.2,-0.1,-0.4,-0.2,-0.6,-0.3c-0.2,-0.2,-0.4,-0.4,-0.5,-0.6c-0.1,-0.2,-0.2,-0.5,-0.2,-0.9c0,-0.3,0,-0.5,0.2,-0.8c0.1,-0.2,0.2,-0.4,0.4,-0.6c0.2,-0.2,0.4,-0.3,0.7,-0.4c0.2,0,0.5,-0.1,0.7,-0.1c0.4,0,0.6,0,0.9,0.1c0.2,0.1,0.5,0.2,0.6,0.4c0,0.1,-0.1,0.2,-0.1,0.4c-0.1,0.1,-0.1,0.2,-0.2,0.4l-0.1,0c-0.2,-0.5,-0.6,-0.7,-1.1,-0.7Z" class="g1_4" />
<path d="M906,182l-214,0l0,-63l214,0l0,63Z" class="g2_4" />
<path d="M691,119l215,0l0,23l-215,0l0,-23Z" class="g3_4" />
<path d="M46,148l637,0l0,22L46,170l0,-22Z" class="g3_4" />
<g clip-path="url(#c0_4)">
<path d="M918.5,1211.5l0,-27" class="g4_4" />
<path d="M918.5,1180.5l0,-1187" class="g5_4" />
</g>
<path d="M75,901l-11,0l0,11l11,0l0,-11Z" class="g6_4" />
<path d="M308,872l-11,0l0,11l11,0l0,-11Z" class="g6_4" />
<path d="M367,872l-11,0l0,11l11,0l0,-11Z" class="g6_4" />
<path d="M75,921l-11,0l0,11l11,0l0,-11Z" class="g6_4" />
<path d="M521,901l-11,0l0,11l11,0l0,-11Z" class="g6_4" />
<path d="M521,921l-11,0l0,11l11,0l0,-11Z" class="g6_4" />
<path d="M42.5,832.5l845,0l0,165l-845,0l0,-165Z" class="g7_4" />
<path d="M487.5,996.5l0,-164" class="g7_4" />
<path d="M314.5,996.5l0,-53" class="g7_4" />
<path d="M697.5,996.5l0,-53" class="g7_4" />
<path d="M42,832l845,0l0,26L42,858l0,-26Z" class="g3_4" />
<path d="M41.5,891.5l845,0" class="g7_4" />
<path d="M41.5,943.5l845,0" class="g7_4" />
<path d="M559,872l-11,0l0,11l11,0l0,-11Z" class="g6_4" />
<path d="M617,872l-11,0l0,11l11,0l0,-11Z" class="g6_4" />
<path d="M255,719L40,719l0,-28l215,0l0,28Z" class="g8_4" />
<path d="M240,747L40,747l0,-28l200,0l0,28Z" class="g8_4" />
<path d="M236,777L40,777l0,-29l196,0l0,29Z" class="g8_4" />
<path d="M221,805L40,805l0,-28l181,0l0,28Z" class="g8_4" />
<path d="M677,747l-48,0l0,-28l48,0l0,28Z" class="g8_4" />
<path d="M677,805l-48,0l0,-28l48,0l0,28Z" class="g8_4" />
<path d="M41.5,719.5l844,0" class="g7_4" />
<path d="M41.5,747.5l844,0" class="g7_4" />
<path d="M41.5,777.5l844,0" class="g7_4" />
<path d="M885.5,805.5l-844,0l0,-113l844,0l0,113Z" class="g7_4" />
<path d="M255.5,717.5l0,-25" class="g7_4" />
<path d="M220.5,805.5l0,-28" class="g7_4" />
<path d="M236.5,777.5l0,-29" class="g7_4" />
<path d="M240.5,747.5l0,-28" class="g7_4" />
<path d="M446,592l-11,0l0,11l11,0l0,-11Z" class="g6_4" />
<path d="M446,615l-11,0l0,11l11,0l0,-11Z" class="g6_4" />
</svg>