<?xml version="1.0" encoding="UTF-8" standalone="no"?>
<!DOCTYPE svg PUBLIC "-//W3C//DTD SVG 1.1//EN"
"http://www.w3.org/Graphics/SVG/1.1/DTD/svg11.dtd">
<svg version="1.1" xmlns="http://www.w3.org/2000/svg" xmlns:xlink="http://www.w3.org/1999/xlink">
<defs>
<clipPath id="c0_1"><path d="M0.5,1210.5L0.5,0.5l935,0l0,1210Z" /></clipPath>
<style type="text/css"><![CDATA[
.g5_1{
fill: #00447B;
}
.g6_1{
fill: #FFFFFF;
}
.g11_1{
fill: #FFFFFF;
stroke: #45555F;
stroke-width: 2;
stroke-linecap: butt;
stroke-linejoin: miter;
}
.g2_1{
fill: none;
stroke: #95A3AD;
stroke-width: 1;
stroke-linecap: butt;
stroke-linejoin: miter;
stroke-miterlimit: 4;
}
.g10_1{
fill: none;
stroke: #45555F;
stroke-width: 2;
stroke-linecap: butt;
stroke-linejoin: miter;
}
.g8_1{
fill: #E8E9EA;
}
.g1_1{
fill: #95A3AD;
}
.g7_1{
fill: none;
stroke: #FFFFFF;
stroke-width: 3;
stroke-linecap: butt;
stroke-linejoin: miter;
stroke-miterlimit: 4;
}
.g3_1{
fill: #492E92;
}
.g9_1{
fill: none;
stroke: #45555F;
stroke-width: 2;
stroke-linecap: butt;
stroke-linejoin: miter;
stroke-miterlimit: 4;
}
.g13_1{
fill: none;
stroke: #231F20;
stroke-width: 1;
stroke-linecap: butt;
stroke-linejoin: miter;
stroke-miterlimit: 4;
stroke-dasharray: 8,8,8,8,8,8;
}
.g4_1{
fill: #008C99;
}
.g12_1{
fill: none;
stroke: #231F20;
stroke-width: 1;
stroke-linecap: butt;
stroke-linejoin: miter;
stroke-miterlimit: 4;
stroke-dasharray: 8,8,8,8;
}
]]></style>
</defs>
<path d="M55,444l825,0l0,27L55,471l0,-27Z" class="g1_1" />
<path d="M455.5,478.5l-399,0l0,657l399,0l0,-657Z" class="g2_1" />
<path d="M92.5,511.5l363,0" class="g2_1" />
<path d="M56.5,548.5l399,0" class="g2_1" />
<path d="M56.5,590.5l399,0" class="g2_1" />
<path d="M92.5,547.5l0,-69" class="g2_1" />
<path d="M257.5,511.5l0,-34" class="g2_1" />
<path d="M289.1,118.6c0,1.8,-2.3,3.3,-5.2,3.3l-198.3,0c-2.9,0,-5.2,-1.5,-5.2,-3.3L80.4,86c0,-1.8,2.3,-3.2,5.2,-3.2l198.3,0c2.9,0,5.2,1.4,5.2,3.2Z" class="g3_1" />
<path d="M546.4,118.6c0,1.8,-2.8,3.3,-6.4,3.3l-241.7,0c-3.5,0,-6.4,-1.5,-6.4,-3.3l0,-32.6c0,-1.8,2.9,-3.2,6.4,-3.2l241.7,0c3.6,0,6.4,1.4,6.4,3.2Z" class="g4_1" />
<path d="M881,90.8c0,0,-0.1,0,-0.2,0l-824.5,0c-0.2,0,-0.3,0,-0.3,0L56,8.9c0,0,0.1,0,0.3,0l824.5,0c0.1,0,0.2,0,0.2,0Z" class="g5_1" />
<path d="M132.5,33.8l0,9.9l5.6,0c0.4,0,0.8,-0.1,1.1,-0.3c0.4,-0.3,0.7,-0.5,0.9,-0.9l0,4.4c-0.2,-0.4,-0.4,-0.7,-0.7,-1c-0.4,-0.2,-0.7,-0.2,-1.2,-0.2l-5.7,0l0,12.5c0,0.7,0.3,0.9,0.7,1.4c0.4,0.4,1.3,0.8,1.3,0.8l-8.1,0.1c0.2,-0.1,1,-0.5,1.4,-0.9c0.4,-0.5,0.6,-0.9,0.6,-1.5l0,-23.2c0,-0.7,-0.2,-1.3,-0.7,-1.8c-0.5,-0.6,-1.5,-1.2,-1.7,-1.2l18.5,0l0,3.5c-0.3,-0.5,-0.7,-0.8,-1.2,-1.1c-0.6,-0.4,-1.1,-0.5,-1.8,-0.5Z" class="g6_1" />
<path d="M146.3,50.8c0,4,1.2,8.9,6,8.9c4.4,0,5.7,-5.1,5.6,-9.1c-0.1,-4,-1.8,-8.8,-5.9,-8.8c-4.4,0.1,-5.7,5,-5.7,9m15.5,-0.1c0.1,5.2,-4.1,10.4,-9.7,10.4c-5.6,0,-9.7,-4.8,-9.7,-10.3c0,-5.3,4,-10.3,9.8,-10.4c5.5,0,9.6,5,9.6,10.3Z" class="g6_1" />
<path d="M169.4,58.9c0,0.4,0.2,0.6,0.5,0.9c0.2,0.3,0.5,0.5,0.9,0.6l-6,0c0.1,0,0.6,-0.3,0.8,-0.6C165.9,59.6,166,59.3,166,59l0,-16.5c0,-0.4,-0.3,-0.6,-0.6,-0.8c-0.4,-0.3,-1,-0.5,-1.1,-0.5L169.4,40l0,4.1c1.5,-1.8,3.3,-3.9,5.2,-3.8c0.7,0,1.2,0.2,1.8,0.4l0,3.1c-1,-0.5,-1.7,-0.7,-2.8,-0.7c-1.3,0,-2.9,0.8,-4.2,2.4Z" class="g6_1" />
<path d="M179.4,42.4l5.3,-5.3l0,3.7l6,0l0,1.7l-6,0l0,13c0,2,1.8,3.7,4,3.7c1.9,0,2.9,-1,3.1,-1.2c0,0.1,-0.6,3.1,-4.6,3.1c-3.3,0,-5.7,-2.2,-5.7,-5.7l0,-13Z" class="g6_1" />
<path d="M199.7,58.9c0,0.4,0.2,0.6,0.5,0.9c0.3,0.3,0.5,0.5,0.9,0.6l-6,0c0.1,0,0.6,-0.3,0.8,-0.6c0.3,-0.2,0.4,-0.5,0.4,-0.8l0,-16.5c0,-0.4,-0.3,-0.6,-0.6,-0.8c-0.3,-0.3,-1,-0.5,-1.1,-0.5L199.7,40l0,4.1c1.5,-1.8,3.3,-3.9,5.2,-3.8c0.7,0,1.2,0.2,1.8,0.4l0,3.1c-0.9,-0.5,-1.7,-0.7,-2.8,-0.7c-1.3,0,-2.9,0.8,-4.2,2.4Z" class="g6_1" />
<path d="M223.2,47.6C223.5,45.8,221.5,42,218.5,42c-4.3,0,-5.9,4.6,-5.8,5.6Zm3.7,7.1c0,0,-0.7,6.3,-8.7,6.4c-5.3,0.1,-9.5,-4.4,-9.6,-10.2c-0.1,-5.4,4.2,-10.3,10,-10.2c7.5,0.2,8.5,7.1,8.4,8.7l-14.4,0c-1.1,3,1.5,9,7,9.2c4.7,0.2,7.3,-3.9,7.3,-3.9Z" class="g6_1" />
<path d="M241.2,46.4c0,-0.1,-1,-4.3,-4.9,-4.4c-1.8,0,-3.6,0.5,-3.6,2.5c0,2.4,3.4,3.9,5.4,4.9c2.8,1.3,4.8,4.1,4.7,5.9c-0.2,3.4,-2.9,5.8,-7.2,5.8c-2.4,0,-4.8,-1,-5.9,-1.8l0,-5.3c0,0,1.9,5.7,6.1,5.6c1.4,-0.1,3.7,-1.1,3.7,-3.7c-0.1,-1.6,-1.8,-3.2,-3.9,-4c-3,-1.3,-5.9,-3.1,-5.9,-6.4c0.1,-3.4,3.1,-5.1,6.5,-5.1c3.4,0.1,4.9,1.7,5,1.7Z" class="g6_1" />
<path d="M256.2,46.4c0,-0.1,-0.9,-4.3,-4.9,-4.4c-1.7,0,-3.5,0.5,-3.5,2.5c0,2.4,3.4,3.9,5.4,4.9c2.8,1.3,4.8,4.1,4.7,5.9c-0.2,3.4,-2.9,5.8,-7.2,5.8c-2.4,0,-4.8,-1,-5.9,-1.8l0,-5.3c0,0,1.9,5.7,6,5.6c1.5,-0.1,3.8,-1.1,3.7,-3.7c0,-1.6,-1.7,-3.2,-3.8,-4c-3,-1.3,-6,-3.1,-5.9,-6.4c0,-3.4,3.1,-5.1,6.5,-5.1c3.4,0.1,4.9,1.7,4.9,1.7Z" class="g6_1" />
<path d="M127.7,69c0,-0.5,0,-0.9,0,-1.3c0.3,0,0.6,0,0.9,0c0.2,0,0.5,0,0.8,0c0.5,0,0.9,0,1.3,0c0.4,0,0.6,0,0.8,0c-0.1,0.1,-0.1,0.2,-0.1,0.4c0,0.1,0,0.2,0,0.2c0.1,0.1,0.1,0.2,0.1,0.2c-0.2,0,-0.4,0,-0.6,0c-0.3,0,-0.5,0,-0.7,0c-0.2,0,-0.4,-0.1,-0.6,-0.1c-0.1,0,-0.3,0,-0.3,0c-0.1,0.4,-0.1,0.7,-0.1,1.1c0,0.3,0,0.7,0,1.1c0.4,-0.1,0.8,-0.1,1.2,-0.1c0.3,0,0.7,0,1,0c0,0.1,0,0.2,0,0.2c0,0.1,0,0.2,0,0.2c0,0.1,0,0.1,0,0.2c0,0,0,0.1,0,0.2c-0.7,0,-1.4,-0.1,-2.2,-0.1l0,0.5c0,0.6,0,1,0,1.5c0,0.4,0.1,0.8,0.1,1.2c-0.1,0,-0.2,0,-0.4,0l-0.4,0l-0.5,0c-0.1,0,-0.2,0,-0.3,0c0,-0.4,0,-0.8,0,-1.2c0.1,-0.5,0.1,-0.9,0.1,-1.5l0,-1.3c0,-0.5,0,-1,-0.1,-1.4Z" class="g6_1" />
<path d="M138.9,74.4c-0.4,-0.1,-0.7,-0.2,-1,-0.4c-0.2,-0.2,-0.5,-0.5,-0.6,-0.8c-0.2,-0.4,-0.2,-0.7,-0.2,-1.2c0,-0.3,0,-0.5,0,-0.7c0,-0.2,0,-0.4,0,-0.6c0,-0.2,0,-0.3,0,-0.5c0,-0.1,0,-0.3,0,-0.5c0,-0.5,0,-0.9,0,-1.3c0,-0.3,0,-0.5,-0.1,-0.7c0.2,0,0.3,0,0.4,0c0.2,0,0.3,0,0.4,0c0.2,0,0.3,0,0.5,0c0.1,0,0.2,0,0.3,0c0,0.6,-0.1,1.2,-0.1,1.8c0,0.5,0,1.1,0,1.6c0,0.6,0.1,1.1,0.1,1.4c0.1,0.4,0.2,0.7,0.4,0.9c0.2,0.2,0.4,0.3,0.6,0.4c0.3,0.1,0.6,0.1,0.9,0.1c0.4,0,0.7,-0.1,0.9,-0.3c0.2,-0.2,0.4,-0.5,0.5,-0.8c0.1,-0.3,0.2,-0.7,0.2,-1.1c0,-0.4,0,-0.9,0,-1.3c0,-0.5,0,-0.9,0,-1.4c0,-0.4,0,-0.9,0,-1.3c0.1,0,0.1,0,0.2,0c0.1,0,0.2,0,0.3,0c0.1,0,0.1,0,0.2,0c0.1,0,0.2,0,0.3,0C143,67.8,143,68,143,68.3c0,0.2,0,0.5,0,0.8c0,0.3,0,0.7,-0.1,1c0,0.4,0,0.8,0,1.3c0,1.1,-0.2,1.9,-0.7,2.4c-0.5,0.5,-1.2,0.7,-2.2,0.7c-0.4,0,-0.8,0,-1.1,-0.1Z" class="g6_1" />
<path d="M149,68.5c0,-0.3,0,-0.6,0,-0.8c0.2,0,0.3,0,0.5,0c0.1,0,0.2,0,0.4,0c0.7,0.8,1.4,1.6,2.1,2.3c0.7,0.8,1.4,1.6,2.1,2.3l0,-0.8l0,-1c0,-0.3,0,-0.6,0,-0.9c0,-0.3,0,-0.6,0,-0.9c0,-0.2,0,-0.4,0,-0.6c0,-0.2,0,-0.3,0,-0.4c0.2,0,0.3,0,0.4,0c0.1,0,0.3,0,0.5,0c-0.1,0.6,-0.1,1.1,-0.1,1.6c0,0.5,-0.1,0.9,-0.1,1.4c0,0.4,0,0.8,0,1.2c0,0.4,0,0.9,0,1.3l0,1.2c-0.1,0,-0.3,0,-0.4,0c-0.1,0,-0.3,0,-0.4,0c-1.3,-1.6,-2.8,-3.1,-4.3,-4.7c0,0.2,0,0.4,0,0.6c0,0.1,0,0.3,0,0.5l0,1.2c0,0.4,0,0.7,0,1c0,0.2,0,0.5,0,0.6c0,0.2,0.1,0.4,0.1,0.5c0,0.1,0,0.2,0,0.3c-0.1,0,-0.2,0,-0.3,0l-0.2,0c-0.1,0,-0.3,0,-0.4,0c0,0,0,-0.2,0,-0.6c0,-0.3,0.1,-0.7,0.1,-1.1c0,-0.5,0,-1,0,-1.5c0.1,-0.6,0.1,-1.1,0.1,-1.6c0,-0.4,0,-0.8,-0.1,-1.1Z" class="g6_1" />
<path d="M162.4,72.4l0,0.6c0,0.2,0,0.4,0,0.5c0,0.2,0,0.3,0,0.3c0.1,0.1,0.2,0.1,0.3,0.1c0.1,0,0.3,0,0.5,0c0.8,0,1.3,-0.3,1.8,-0.8c0.4,-0.5,0.6,-1.2,0.6,-2.3c0,-0.4,0,-0.7,-0.1,-1c-0.1,-0.4,-0.3,-0.6,-0.5,-0.9c-0.2,-0.2,-0.4,-0.3,-0.7,-0.5c-0.3,-0.1,-0.6,-0.2,-0.9,-0.2c-0.3,0,-0.4,0.1,-0.6,0.1c-0.1,0,-0.3,0,-0.4,0c0,0,0,0.1,0,0.3c0,0.2,0,0.3,0,0.5l0,0.6l0,0.5l0,1.7ZM160.9,69c0,-0.5,0,-0.9,-0.1,-1.3c0.1,0,0.3,0,0.4,0c0.1,0,0.3,0,0.4,0c0.2,0,0.5,0,0.8,0c0.2,0,0.6,0,1,0c0.6,0,1.1,0,1.5,0.1c0.5,0.1,0.9,0.3,1.2,0.6c0.4,0.2,0.6,0.5,0.8,0.9c0.2,0.4,0.3,0.9,0.3,1.6c0,0.5,-0.1,1,-0.3,1.4c-0.2,0.5,-0.4,0.8,-0.7,1.1c-0.3,0.4,-0.7,0.6,-1.1,0.8c-0.4,0.1,-0.9,0.2,-1.3,0.2c-0.5,0,-0.9,0,-1.3,0c-0.3,0,-0.6,0,-0.9,0l-0.4,0c-0.1,0,-0.3,0,-0.4,0c0.1,-0.4,0.1,-0.8,0.1,-1.2c0,-0.5,0,-0.9,0,-1.5l0,-1.3c0,-0.5,0,-1,0,-1.4Z" class="g6_1" />
<path d="M177.3,72.2c-0.1,0.7,-0.1,1.5,-0.2,2.2c0,0,-0.1,0,-0.2,0l-0.2,0l-0.3,0c0,0,-0.1,0,-0.2,0c0.2,-1.1,0.4,-2.2,0.6,-3.3c0.1,-1.1,0.3,-2.3,0.4,-3.4c0.1,0,0.2,0,0.2,0c0.1,0,0.2,0,0.2,0c0.1,0,0.1,0,0.2,0c0.1,0,0.1,0,0.2,0c0.2,0.4,0.4,0.8,0.6,1.2c0.2,0.4,0.3,0.8,0.5,1.2c0.2,0.4,0.4,0.8,0.6,1.2c0.2,0.4,0.4,0.7,0.6,1.1c0.4,-0.8,0.8,-1.5,1.1,-2.3c0.4,-0.8,0.8,-1.6,1.2,-2.4c0.1,0,0.3,0,0.4,0c0.1,0,0.2,0,0.4,0c0,0.6,0.1,1.2,0.2,1.8c0.1,0.6,0.1,1.3,0.2,1.9c0.1,0.6,0.2,1.2,0.2,1.7c0.1,0.5,0.2,1,0.2,1.3c-0.1,0,-0.2,0,-0.4,0l-0.4,0l-0.4,0c-0.1,0,-0.2,0,-0.4,0c0,-0.7,-0.1,-1.4,-0.1,-2.2c-0.1,-0.8,-0.2,-1.5,-0.3,-2.3c-0.4,0.8,-0.7,1.5,-1.1,2.3c-0.3,0.7,-0.7,1.5,-1.1,2.2c-0.1,0,-0.1,0,-0.1,0c-0.1,0,-0.1,0,-0.1,0c-0.1,0,-0.1,0,-0.1,0c-0.4,-0.7,-0.7,-1.5,-1.1,-2.2c-0.3,-0.7,-0.7,-1.5,-1.1,-2.2c-0.1,0.7,-0.2,1.5,-0.2,2.2Z" class="g6_1" />
<path d="M191.8,69.5c-0.2,0.4,-0.3,0.8,-0.5,1.2c-0.1,0.4,-0.3,0.8,-0.4,1.2l1.8,0c-0.2,-0.4,-0.3,-0.8,-0.4,-1.2c-0.2,-0.4,-0.3,-0.8,-0.5,-1.2m3.5,4.9c-0.2,0,-0.3,0,-0.5,0l-0.4,0l-0.4,0c-0.1,0,-0.3,0,-0.4,0c-0.1,-0.3,-0.2,-0.6,-0.3,-1c-0.2,-0.3,-0.3,-0.6,-0.4,-1c-0.2,0,-0.4,0,-0.6,0c-0.2,0,-0.4,0,-0.7,0c-0.1,0,-0.3,0,-0.5,0c-0.1,0,-0.3,0,-0.5,0c-0.1,0.4,-0.2,0.7,-0.3,1c-0.1,0.4,-0.2,0.7,-0.3,1c-0.1,0,-0.2,0,-0.3,0l-0.2,0l-0.2,0c-0.1,0,-0.2,0,-0.3,0c0.1,-0.2,0.2,-0.4,0.3,-0.7c0.2,-0.3,0.3,-0.6,0.5,-1c0.1,-0.4,0.3,-0.8,0.5,-1.2c0.1,-0.5,0.3,-0.9,0.5,-1.3c0.2,-0.5,0.4,-0.9,0.5,-1.4c0.2,-0.4,0.4,-0.8,0.5,-1.2c0.1,0.1,0.1,0.1,0.2,0.1c0,0,0.1,0,0.2,0c0,0,0.1,0,0.2,0c0,0,0.1,0,0.1,-0.1c0.3,0.6,0.5,1.2,0.7,1.8c0.3,0.7,0.5,1.3,0.7,1.9c0.3,0.6,0.5,1.2,0.7,1.7c0.3,0.6,0.5,1,0.7,1.4Z" class="g6_1" />
<path d="M200.7,68.5c-0.1,-0.3,-0.1,-0.6,-0.1,-0.8c0.2,0,0.4,0,0.5,0c0.1,0,0.2,0,0.4,0c0.7,0.8,1.4,1.6,2.1,2.3c0.7,0.8,1.4,1.6,2.2,2.3l0,-0.8l0,-1c0,-0.3,0,-0.6,0,-0.9c-0.1,-0.3,-0.1,-0.6,-0.1,-0.9c0,-0.2,0,-0.4,0,-0.6c0,-0.2,0,-0.3,0,-0.4c0.2,0,0.3,0,0.4,0c0.1,0,0.3,0,0.5,0c-0.1,0.6,-0.1,1.1,-0.1,1.6c0,0.5,0,0.9,-0.1,1.4c0,0.4,0,0.8,0,1.2c0,0.4,0,0.9,0,1.3l0,1.2c-0.1,0,-0.3,0,-0.4,0c-0.1,0,-0.3,0,-0.4,0c-1.3,-1.6,-2.7,-3.1,-4.2,-4.7c-0.1,0.2,-0.1,0.4,-0.1,0.6c0,0.1,0,0.3,0,0.5l0,1.2c0,0.4,0,0.7,0,1c0,0.2,0,0.5,0.1,0.6c0,0.2,0,0.4,0,0.5c0,0.1,0,0.2,0,0.3c-0.1,0,-0.2,0,-0.2,0l-0.3,0c-0.1,0,-0.3,0,-0.4,0c0,0,0,-0.2,0,-0.6c0,-0.3,0.1,-0.7,0.1,-1.1c0,-0.5,0,-1,0.1,-1.5c0,-0.6,0,-1.1,0,-1.6c0,-0.4,0,-0.8,0,-1.1Z" class="g6_1" />
<path d="M214.4,69.5c-0.2,0.4,-0.3,0.8,-0.5,1.2c-0.1,0.4,-0.3,0.8,-0.4,1.2l1.8,0c-0.2,-0.4,-0.3,-0.8,-0.5,-1.2c-0.1,-0.4,-0.2,-0.8,-0.4,-1.2m3.5,4.9c-0.2,0,-0.3,0,-0.5,0l-0.4,0l-0.4,0c-0.2,0,-0.3,0,-0.4,0c-0.1,-0.3,-0.2,-0.6,-0.4,-1c-0.1,-0.3,-0.2,-0.6,-0.3,-1c-0.2,0,-0.4,0,-0.6,0c-0.2,0,-0.5,0,-0.7,0c-0.1,0,-0.3,0,-0.5,0c-0.1,0,-0.3,0,-0.5,0c-0.1,0.4,-0.2,0.7,-0.3,1c-0.2,0.4,-0.3,0.7,-0.3,1c-0.1,0,-0.2,0,-0.3,0l-0.2,0l-0.2,0c-0.1,0,-0.2,0,-0.3,0c0.1,-0.2,0.2,-0.4,0.3,-0.7c0.1,-0.3,0.3,-0.6,0.4,-1c0.2,-0.4,0.4,-0.8,0.6,-1.2c0.1,-0.5,0.3,-0.9,0.5,-1.3c0.2,-0.5,0.3,-0.9,0.5,-1.4c0.2,-0.4,0.3,-0.8,0.5,-1.2c0.1,0.1,0.1,0.1,0.2,0.1c0,0,0.1,0,0.2,0c0,0,0.1,0,0.2,0c0,0,0.1,0,0.1,-0.1c0.2,0.6,0.5,1.2,0.7,1.8c0.2,0.7,0.5,1.3,0.7,1.9c0.3,0.6,0.5,1.2,0.7,1.7c0.3,0.6,0.5,1,0.7,1.4Z" class="g6_1" />
<path d="M227.5,68.4c-0.3,-0.1,-0.7,-0.2,-1.1,-0.2c-0.3,0,-0.6,0,-0.9,0.2c-0.3,0.1,-0.6,0.3,-0.8,0.5c-0.2,0.3,-0.4,0.6,-0.6,1c-0.1,0.4,-0.2,0.8,-0.2,1.3c0,0.4,0.1,0.8,0.2,1.1c0.1,0.3,0.3,0.6,0.5,0.9c0.2,0.2,0.4,0.4,0.7,0.5c0.3,0.2,0.6,0.3,1,0.3c0.1,0,0.2,-0.1,0.3,-0.1c0.1,0,0.2,0,0.3,0c0.1,0,0.2,0,0.3,-0.1c0.1,0,0.1,0,0.2,0c0,-0.1,0,-0.2,0,-0.3c0,-0.1,0,-0.3,0,-0.4c0,-0.5,0,-0.9,0,-1.2c0,-0.2,-0.1,-0.4,-0.1,-0.5c0.1,0,0.2,0,0.3,0c0.1,0.1,0.3,0.1,0.5,0.1c0.2,0,0.4,0,0.5,-0.1c0.1,0,0.2,0,0.3,0c-0.1,0.1,-0.1,0.2,-0.1,0.3c0,0.1,0,0.2,0,0.4c0,0.1,0,0.3,0,0.5c0,0.1,0,0.3,0,0.5l0,0.3c0,0.1,0,0.3,0,0.4c0,0.2,0,0.3,0,0.3c-0.4,0.2,-0.9,0.3,-1.3,0.3c-0.4,0.1,-0.9,0.1,-1.3,0.1c-0.6,0,-1.1,0,-1.6,-0.2c-0.4,-0.1,-0.8,-0.4,-1.2,-0.6c-0.3,-0.3,-0.6,-0.7,-0.8,-1.1c-0.2,-0.4,-0.3,-0.8,-0.3,-1.3c0,-0.6,0.1,-1.2,0.3,-1.6c0.2,-0.5,0.5,-0.9,0.9,-1.2c0.3,-0.3,0.8,-0.5,1.3,-0.7c0.5,-0.2,1,-0.2,1.6,-0.2c0.5,0,0.9,0,1.3,0.1c0.3,0.1,0.7,0.3,1,0.5c0,0.1,-0.1,0.3,-0.1,0.4c-0.1,0.2,-0.1,0.4,-0.1,0.5l-0.2,0c-0.2,-0.2,-0.4,-0.5,-0.8,-0.7Z" class="g6_1" />
<path d="M234.5,69c0,-0.5,0,-0.9,0,-1.3c0.3,0,0.6,0,0.9,0c0.3,0,0.5,0,0.8,0c0.5,0,0.9,0,1.3,0c0.4,0,0.7,0,0.8,0c0,0.1,-0.1,0.2,-0.1,0.4c0,0.1,0,0.2,0.1,0.2c0,0.1,0,0.2,0,0.2c-0.2,0,-0.4,0,-0.6,0c-0.3,0,-0.5,0,-0.7,0c-0.2,0,-0.4,-0.1,-0.6,-0.1c-0.1,0,-0.3,0,-0.3,0C236,68.8,236,69.1,236,69.5c0,0.3,0,0.7,0,1.1c0.4,-0.1,0.8,-0.1,1.2,-0.1c0.3,0,0.7,0,1,0c0,0.1,0,0.2,0,0.2c0,0.1,0,0.2,0,0.2c0,0.1,0,0.1,0,0.2c0,0,0,0.1,0,0.2c-0.7,0,-1.4,-0.1,-2.2,-0.1c0,0.2,0,0.4,0,0.7c0,0.2,0,0.4,0,0.6c0,0.4,0,0.8,0,1.2c0.4,0,0.8,0,1.2,0c0.3,-0.1,0.7,-0.1,1.1,-0.1c0,0,0,0.1,0,0.2c-0.1,0,-0.1,0.1,-0.1,0.2c0,0.1,0,0.2,0.1,0.3c0,0,0,0.1,0,0.1c-0.2,0,-0.4,0,-0.7,0c-0.2,0,-0.6,0,-1,0l-1,0l-0.6,0c-0.1,0,-0.2,0,-0.3,0c-0.1,0,-0.2,0,-0.2,0c0,-0.4,0,-0.8,0,-1.2c0.1,-0.5,0.1,-0.9,0.1,-1.5l0,-1.3c0,-0.5,0,-1,-0.1,-1.4Z" class="g6_1" />
<path d="M246.8,68.8c-0.1,-0.1,-0.2,-0.3,-0.3,-0.3c-0.1,-0.1,-0.3,-0.2,-0.5,-0.2c-0.2,0,-0.4,-0.1,-0.7,-0.1c0,0.9,0,1.8,0,2.7c0.1,0,0.1,0,0.1,0c0.1,0,0.1,0,0.1,0c0.5,0,0.8,-0.1,1,-0.3c0.2,-0.3,0.4,-0.6,0.4,-1.1c0,-0.3,-0.1,-0.5,-0.1,-0.7m-1.5,2.5l0,0.4c0,0.6,0,1,0,1.5c0,0.4,0.1,0.8,0.1,1.2c-0.1,0,-0.2,0,-0.4,0l-0.4,0l-0.5,0c-0.1,0,-0.2,0,-0.3,0c0,-0.4,0,-0.8,0,-1.2c0.1,-0.5,0.1,-0.9,0.1,-1.5l0,-1.3c0,-0.5,0,-1,-0.1,-1.4c0,-0.5,0,-0.9,0,-1.3c0.1,0,0.2,0,0.3,0c0.2,0,0.3,0,0.5,0c0.2,0,0.4,0,0.6,0c0.2,0,0.5,0,0.8,0c0.3,0,0.5,0,0.7,0c0.1,0,0.3,0,0.4,0.1c0.1,0,0.3,0,0.4,0.1c0,0,0.1,0.1,0.2,0.1c0.2,0.2,0.4,0.3,0.5,0.6c0.1,0.2,0.2,0.4,0.2,0.7c0,0.5,-0.2,0.9,-0.4,1.2c-0.3,0.3,-0.7,0.5,-1.2,0.6c0.4,0.6,0.7,1.1,1,1.7c0.4,0.5,0.8,1.1,1.1,1.6c-0.1,0,-0.3,0,-0.4,0l-0.5,0l-0.4,0c-0.1,0,-0.3,0,-0.4,0l-1.8,-3.1Z" class="g6_1" />
<path d="M255.9,68.2c-0.3,0,-0.6,0.1,-0.8,0.2c-0.2,0.2,-0.3,0.4,-0.3,0.6c0,0.3,0.1,0.5,0.3,0.6c0.1,0.2,0.3,0.3,0.5,0.5c0.2,0.1,0.5,0.2,0.7,0.3c0.3,0.1,0.5,0.3,0.7,0.4c0.3,0.2,0.4,0.4,0.6,0.6c0.1,0.3,0.2,0.6,0.2,1c0,0.3,-0.1,0.6,-0.2,0.8c-0.1,0.3,-0.3,0.5,-0.5,0.7c-0.2,0.2,-0.5,0.4,-0.8,0.5c-0.3,0.1,-0.7,0.1,-1.1,0.1c-0.3,0,-0.6,0,-0.9,-0.1c-0.3,-0.1,-0.5,-0.2,-0.7,-0.3c0.1,-0.2,0.2,-0.4,0.2,-0.6c0.1,-0.2,0.1,-0.4,0.1,-0.6l0.2,0c0,0.1,0.1,0.3,0.2,0.4c0,0.1,0.1,0.2,0.2,0.3c0.1,0.1,0.3,0.2,0.4,0.3c0.2,0,0.4,0.1,0.6,0.1c0.4,0,0.6,-0.1,0.8,-0.3c0.2,-0.2,0.3,-0.5,0.3,-0.7c0,-0.3,-0.1,-0.5,-0.2,-0.6c-0.2,-0.2,-0.3,-0.3,-0.5,-0.5c-0.3,-0.1,-0.5,-0.2,-0.7,-0.3c-0.3,-0.1,-0.5,-0.3,-0.8,-0.4C254.2,71,254,70.8,253.9,70.6c-0.1,-0.3,-0.2,-0.6,-0.2,-0.9c0,-0.4,0.1,-0.7,0.2,-0.9c0.1,-0.3,0.3,-0.5,0.5,-0.7c0.2,-0.2,0.4,-0.3,0.7,-0.4c0.2,-0.1,0.5,-0.1,0.8,-0.1c0.3,0,0.7,0,0.9,0.1c0.3,0.1,0.5,0.2,0.7,0.3c-0.1,0.2,-0.1,0.3,-0.2,0.5c0,0.1,-0.1,0.3,-0.1,0.5L257,69c-0.2,-0.5,-0.6,-0.8,-1.1,-0.8Z" class="g6_1" />
<path d="M109,32l0,3.3l-5.2,0l0,-3.4l-9.3,0l0,3.9l-5.5,0l0,-3.9l-7.1,0l0,30.6c1.8,-6.1,7.2,-17,22.5,-19.5c11.4,-1.7,12.4,-6,13.6,-8.3L118,32Z" class="g6_1" />
<path d="M118.4,37c-1.3,2.2,-2.2,6.5,-13.3,7.9C91,46.7,85.5,56.3,83.4,62.4c3,-4.2,8.8,-7.2,9,-7.3l0.7,-0.3c-3.5,3.4,-5.6,6.4,-7,8.7c3.3,-2.6,8.4,-4.9,16.1,-5.2C119.6,57.8,118.4,37,118.4,37Z" class="g6_1" />
<path d="M82.3,65.7c0,0,-1,2,-0.6,3.8c0,0,0.6,0.9,1.4,-0.2c0,0,-0.5,-4,5.4,-10.4c0,0,-4.8,3.2,-6.2,6.8Z" class="g6_1" />
<path d="M661.1,72.1l0.2,-0.8L664,66.7c0,-0.1,0.1,-0.2,0.2,-0.2l1,0c0.1,0,0.2,0.1,0.2,0.2c0,0,-3.8,6,-3.8,6l0,4c0,0.1,0,0.2,-0.1,0.2l-0.9,0c-0.1,0,-0.1,-0.1,-0.1,-0.2l0,-4c0,0,-3.7,-5.9,-3.7,-5.9c0,-0.1,0.1,-0.2,0.2,-0.2c0,0,0.8,-0.1,0.9,-0.1c0.1,0,0.1,0.1,0.2,0.2l2.7,4.6Z" class="g6_1" />
<path d="M670.2,76.1c2,0,2.5,-1.3,2.5,-2.9c0,-1.6,-0.5,-3,-2.5,-3c-2,0,-2.5,1.4,-2.5,3c0,1.6,0.5,2.9,2.5,2.9m0,-6.8c2.2,0,3.7,1.2,3.7,3.9c0,2.6,-1.5,3.8,-3.7,3.8c-2.2,0,-3.7,-1.2,-3.7,-3.8c0,-2.7,1.5,-3.9,3.7,-3.9Z" class="g6_1" />
<path d="M677.3,73.2c0,1.6,0,2.9,1.8,2.9c1.6,0,2.5,-0.8,2.5,-2.3l0,-4.1c0,0,0,-0.1,0.1,-0.1l0.9,-0.1c0.1,0,0.2,0,0.2,0.1l0,6.1c0,0.6,0.1,1,0.1,1c0,0.1,-0.1,0.2,-0.1,0.2l-0.9,0c-0.1,0,-0.1,-0.1,-0.2,-0.2l-0.1,-0.9c0,0,-0.6,1.2,-2.5,1.2c-3,0,-3,-1.7,-3,-3.8l0,-3.5c0,0,0.1,-0.1,0.1,-0.1l0.9,-0.1c0.1,0,0.2,0,0.2,0.1Z" class="g6_1" />
<path d="M690.4,69.6c0,0,0.1,0.6,0.1,0.6c0,0.1,0,0.2,-0.1,0.2c0,0,-0.8,-0.2,-1.2,-0.2c-1.6,0,-2.5,0.9,-2.5,2.4l0,4.1c0,0.1,-0.1,0.2,-0.2,0.2l-0.8,0c-0.1,0,-0.2,-0.1,-0.2,-0.2l0,-6c0,-0.6,-0.1,-1,-0.1,-1.1c0,-0.1,0,-0.1,0.1,-0.1l0.9,0c0.1,0,0.1,0,0.1,0.1l0.2,0.9c0,0,0.6,-1.2,2.5,-1.2c0.4,0,1.1,0.2,1.1,0.2c0.1,0,0.1,0,0.1,0.1Z" class="g6_1" />
<path d="M697.9,76.7c0,0.1,-0.1,0.2,-0.1,0.2l-0.9,0c-0.1,0,-0.2,-0.1,-0.2,-0.2l0,-9.9c0,-0.1,0.1,-0.1,0.2,-0.1l1.3,-0.2l4.6,0c0.1,0,0.2,0.1,0.2,0.2c0,0,0.1,0.5,0.1,0.6c0,0,-0.1,0.1,-0.2,0.1l-5,0l0,3.7l4.6,0c0.1,0,0.1,0.1,0.1,0.2l0,0.5c0,0.1,0,0.2,-0.1,0.2l-4.6,0Z" class="g6_1" />
<path d="M706.3,73.2c0,1.6,0,2.9,1.8,2.9c1.6,0,2.5,-0.8,2.5,-2.3l0,-4.1c0,0,0.1,-0.1,0.1,-0.1l0.9,-0.1c0.1,0,0.2,0,0.2,0.1l0,6.1c0,0.6,0.1,1,0.1,1c0,0.1,0,0.2,-0.1,0.2l-0.9,0c-0.1,0,-0.1,-0.1,-0.2,-0.2l-0.1,-0.9c0,0,-0.6,1.2,-2.5,1.2c-3,0,-3,-1.7,-3,-3.8l0,-3.5c0,0,0.1,-0.1,0.2,-0.1l0.9,-0.1c0,0,0.1,0,0.1,0.1Z" class="g6_1" />
<path d="M716.4,69.5l1.8,0c0.1,0,0.2,0,0.2,0.1c0,0,0.1,0.6,0.1,0.6c0,0.1,-0.1,0.2,-0.2,0.2l-1.9,0l0,4c0,1.1,0.4,1.7,1,1.7c0.5,0,0.9,-0.1,1,-0.1c0.1,0,0.1,0,0.1,0.1c0,0,0.1,0.5,0.1,0.6c0,0.1,0,0.1,-0.1,0.2c0,0,-0.5,0.1,-1.1,0.1c-1.6,0,-2.2,-1.3,-2.2,-2.9l0,-3.7l-1.7,0c0,0,-0.1,-0.1,-0.1,-0.2c0,0,-0.1,-0.5,-0.1,-0.6c0,-0.1,0,-0.1,0.1,-0.1l1.8,0l0,-2.7c0,-0.1,0.1,-0.2,0.2,-0.2l0.8,-0.1c0.1,0,0.2,0.1,0.2,0.2Z" class="g6_1" />
<path d="M721.5,73.2c0,1.6,0.1,2.9,1.8,2.9c1.7,0,2.5,-0.8,2.5,-2.3l0,-4.1c0,0,0.1,-0.1,0.2,-0.1l0.9,-0.1c0.1,0,0.1,0,0.1,0.1l0,6.1c0,0.6,0.2,1,0.2,1c0,0.1,-0.1,0.2,-0.2,0.2l-0.9,0c0,0,-0.1,-0.1,-0.1,-0.2l-0.2,-0.9c0,0,-0.5,1.2,-2.5,1.2c-2.9,0,-2.9,-1.7,-2.9,-3.8l0,-3.5c0,0,0,-0.1,0.1,-0.1l0.9,-0.1c0.1,0,0.1,0,0.1,0.1Z" class="g6_1" />
<path d="M734.7,69.6c0,0,0.1,0.6,0.1,0.6c0,0.1,0,0.2,-0.1,0.2c0,0,-0.8,-0.2,-1.2,-0.2c-1.7,0,-2.5,0.9,-2.5,2.4l0,4.1c0,0.1,-0.1,0.2,-0.2,0.2l-0.9,0c-0.1,0,-0.1,-0.1,-0.1,-0.2l0,-6c0,-0.6,-0.2,-1,-0.2,-1.1c0,-0.1,0.1,-0.1,0.2,-0.1l0.9,0c0,0,0.1,0,0.1,0.1l0.2,0.9c0,0,0.6,-1.2,2.5,-1.2c0.4,0,1.1,0.2,1.1,0.2c0.1,0,0.1,0,0.1,0.1Z" class="g6_1" />
<path d="M737.3,72.7l4.6,0c0,-1.4,-0.6,-2.5,-2.1,-2.5c-1.9,0,-2.4,1,-2.5,2.5m5.3,3.3c0,0,-0.1,0.6,-0.1,0.6c0,0.1,-0.1,0.1,-0.2,0.1c0,0,-0.9,0.3,-2.4,0.3c-3.1,0,-3.8,-1.7,-3.8,-3.8c0,-2.2,0.7,-3.9,3.7,-3.9c2.1,0,3.2,1.2,3.2,3.9l0,0.3c0,0,0,0.1,-0.1,0.1l-5.6,0c0.1,1.5,0.7,2.5,2.7,2.5c1.1,0,2.4,-0.3,2.5,-0.3c0,0,0.1,0.1,0.1,0.2Z" class="g6_1" />
<path d="M745.8,75.5c0.4,0,0.7,0.4,0.7,0.8c0,0.4,-0.3,0.7,-0.7,0.7c-0.4,0,-0.7,-0.3,-0.7,-0.7c0,-0.4,0.3,-0.8,0.7,-0.8Z" class="g6_1" />
<path d="M849.5,75.5c0.5,0,0.8,0.4,0.8,0.8c0,0.4,-0.3,0.7,-0.8,0.7c-0.4,0,-0.7,-0.3,-0.7,-0.7c0,-0.4,0.3,-0.8,0.7,-0.8Z" class="g6_1" />
<path d="M757.7,76.1c2.7,0,3.5,-1.9,3.5,-4.4c0,-2.5,-0.8,-4.4,-3.5,-4.4c-2.6,0,-3.4,1.9,-3.4,4.4c0,2.5,0.8,4.4,3.4,4.4m0,-9.7c3.7,0,4.8,2.3,4.8,5.3c0,2.9,-1.1,5.3,-4.8,5.3C754.1,77,753,74.6,753,71.7c0,-3,1.1,-5.3,4.7,-5.3Z" class="g6_1" />
<path d="M766,73.2c0,1.6,0,2.9,1.8,2.9c1.6,0,2.5,-0.8,2.5,-2.3l0,-4.1c0,0,0,-0.1,0.1,-0.1l0.9,-0.1c0.1,0,0.2,0,0.2,0.1l0,6.1c0,0.6,0.1,1,0.1,1c0,0.1,0,0.2,-0.1,0.2l-0.9,0c-0.1,0,-0.1,-0.1,-0.2,-0.2l-0.1,-0.9c0,0,-0.6,1.2,-2.5,1.2c-3,0,-3,-1.7,-3,-3.8l0,-3.5c0,0,0.1,-0.1,0.1,-0.1l0.9,-0.1c0.1,0,0.2,0,0.2,0.1Z" class="g6_1" />
<path d="M779.2,69.6c0,0,0,0.6,0,0.6c0,0.1,0,0.2,-0.1,0.2c0,0,-0.8,-0.2,-1.2,-0.2c-1.6,0,-2.5,0.9,-2.5,2.4l0,4.1c0,0.1,-0.1,0.2,-0.1,0.2l-0.9,0c-0.1,0,-0.2,-0.1,-0.2,-0.2l0,-6c0,-0.6,-0.1,-1,-0.1,-1.1c0,-0.1,0,-0.1,0.1,-0.1l0.9,0c0.1,0,0.1,0,0.2,0.1l0.1,0.9c0,0,0.6,-1.2,2.5,-1.2c0.4,0,1.1,0.2,1.1,0.2c0.1,0,0.1,0,0.2,0.1Z" class="g6_1" />
<path d="M786.6,72l0,4l1.9,0c2.8,0,3,-0.9,3,-2.1c0,-1,-0.4,-1.9,-3,-1.9Zm1.9,-0.9c2.5,0,2.7,-0.7,2.7,-1.8c0,-1,-0.2,-1.9,-2.7,-1.9l-1.9,0l0,3.7Zm-3.1,-4.3c0,-0.1,0.1,-0.1,0.2,-0.1l1.3,-0.2l1.6,0c3.4,0,3.9,1.3,3.9,2.8c0,1.1,-0.7,2,-1.6,2.3c0.9,0.2,1.9,1.1,1.9,2.3c0,1.6,-0.5,3,-4.2,3l-2.9,0c-0.1,0,-0.2,-0.1,-0.2,-0.2Z" class="g6_1" />
<path d="M796.2,73.2c0,1.6,0,2.9,1.8,2.9c1.6,0,2.5,-0.8,2.5,-2.3l0,-4.1c0,0,0.1,-0.1,0.2,-0.1l0.8,-0.1c0.1,0,0.2,0,0.2,0.1l0,6.1c0,0.6,0.1,1,0.1,1c0,0.1,0,0.2,-0.1,0.2l-0.9,0c-0.1,0,-0.1,-0.1,-0.1,-0.2l-0.2,-0.9c0,0,-0.6,1.2,-2.5,1.2c-3,0,-3,-1.7,-3,-3.8l0,-3.5c0,0,0.1,-0.1,0.2,-0.1l0.9,-0.1c0,0,0.1,0,0.1,0.1Z" class="g6_1" />
<path d="M809.3,69.8c0,0,0.1,0.5,0.1,0.6c0,0.1,-0.1,0.1,-0.2,0.1c-0.1,0,-1.5,-0.3,-2.5,-0.3c-1,0,-1.5,0.5,-1.5,1.2c0,1.5,4.6,1,4.6,3.6c0,1.2,-0.9,2,-2.8,2c-1.2,0,-2.7,-0.4,-2.7,-0.4c-0.1,0,-0.2,-0.1,-0.2,-0.2c0,0,-0.1,-0.5,-0.1,-0.6c0,0,0.1,-0.1,0.2,-0.1c0,0,1.7,0.4,2.8,0.4c1,0,1.6,-0.5,1.6,-1.1c0,-1.7,-4.6,-1,-4.6,-3.6c0,-1.3,0.9,-2.1,2.7,-2.1c1.4,0,2.4,0.3,2.4,0.3c0.1,0.1,0.1,0.1,0.2,0.2Z" class="g6_1" />
<path d="M811.9,69.7c0,0,0.1,-0.1,0.2,-0.1L813,69.5c0.1,0,0.1,0,0.1,0.1l0,6.1c0,0.6,0.2,1,0.2,1c0,0.1,-0.1,0.2,-0.2,0.2l-0.9,0c0,0,-0.1,-0.1,-0.1,-0.2c0,0,-0.2,-0.4,-0.2,-1Zm0.6,-3.3c0.5,0,0.8,0.3,0.8,0.7c0,0.4,-0.3,0.7,-0.8,0.7c-0.4,0,-0.7,-0.3,-0.7,-0.7c0,-0.4,0.3,-0.7,0.7,-0.7Z" class="g6_1" />
<path d="M821.4,73.2c0,-1.6,-0.1,-3,-1.8,-3c-1.7,0,-2.5,0.9,-2.5,2.4l0,4.1c0,0.1,-0.1,0.2,-0.2,0.2l-0.9,0c-0.1,0,-0.1,-0.1,-0.1,-0.2l0,-6c0,-0.6,-0.2,-1,-0.2,-1.1c0,-0.1,0.1,-0.1,0.2,-0.1l0.9,0c0,0,0.1,0,0.1,0.1l0.2,0.9c0,0,0.6,-1.2,2.5,-1.2c2.9,0,2.9,1.7,2.9,3.9l0,3.5c0,0.1,0,0.2,-0.1,0.2l-0.9,0c-0.1,0,-0.1,-0.1,-0.1,-0.2Z" class="g6_1" />
<path d="M826,72.7l4.5,0c0,-1.4,-0.6,-2.5,-2,-2.5c-1.9,0,-2.4,1,-2.5,2.5m5.3,3.3c0,0,-0.1,0.6,-0.1,0.6c0,0.1,-0.1,0.1,-0.2,0.1c0,0,-0.9,0.3,-2.4,0.3c-3.2,0,-3.8,-1.7,-3.8,-3.8c0,-2.2,0.6,-3.9,3.7,-3.9c2,0,3.2,1.2,3.2,3.9l0,0.3c0,0,0,0.1,-0.1,0.1l-5.6,0c0.1,1.5,0.7,2.5,2.7,2.5c1.1,0,2.4,-0.3,2.4,-0.3c0.1,0,0.2,0.1,0.2,0.2Z" class="g6_1" />
<path d="M838.8,69.8c0,0,0.1,0.5,0.1,0.6c0,0.1,-0.1,0.1,-0.2,0.1c-0.1,0,-1.5,-0.3,-2.5,-0.3c-1,0,-1.5,0.5,-1.5,1.2c0,1.5,4.6,1,4.6,3.6c0,1.2,-0.9,2,-2.8,2c-1.2,0,-2.7,-0.4,-2.7,-0.4c-0.1,0,-0.1,-0.1,-0.2,-0.2c0,0,-0.1,-0.5,-0.1,-0.6c0,0,0.1,-0.1,0.2,-0.1c0.1,0,1.7,0.4,2.8,0.4c1,0,1.6,-0.5,1.6,-1.1c0,-1.7,-4.6,-1,-4.6,-3.6c0,-1.3,0.9,-2.1,2.7,-2.1c1.4,0,2.4,0.3,2.4,0.3c0.1,0.1,0.1,0.1,0.2,0.2Z" class="g6_1" />
<path d="M846.3,69.8c0,0,0.1,0.5,0.1,0.6c0,0.1,-0.1,0.1,-0.1,0.1c-0.1,0,-1.5,-0.3,-2.6,-0.3c-0.9,0,-1.4,0.5,-1.4,1.2c0,1.5,4.6,1,4.6,3.6c0,1.2,-1,2,-2.9,2c-1.2,0,-2.7,-0.4,-2.7,-0.4c-0.1,0,-0.1,-0.1,-0.1,-0.2c0,0,-0.1,-0.5,-0.1,-0.6c0,0,0,-0.1,0.1,-0.1c0.1,0,1.8,0.4,2.8,0.4c1,0,1.7,-0.5,1.7,-1.1c0,-1.7,-4.6,-1,-4.6,-3.6c0,-1.3,0.8,-2.1,2.6,-2.1c1.5,0,2.4,0.3,2.4,0.3c0.1,0.1,0.2,0.1,0.2,0.2Z" class="g6_1" />
<path d="M39.5,90.5l855,0" class="g7_1" />
<path d="M56.5,956.5l398,0" class="g2_1" />
<path d="M56.5,863.5l398,0" class="g2_1" />
<path d="M56.5,886.5l398,0" class="g2_1" />
<path d="M56.5,923.5l398,0" class="g2_1" />
<path d="M56.5,841.5l398,0" class="g2_1" />
<path d="M56.5,701.5l399,0" class="g2_1" />
<path d="M56.5,732.5l398,0" class="g2_1" />
<path d="M56.5,766.5l398,0" class="g2_1" />
<path d="M56.5,813.5l398,0" class="g2_1" />
<path d="M56.5,841.5l398,0" class="g2_1" />
<path d="M246.5,766.5l0,-34" class="g2_1" />
<path d="M181.5,813.5l0,-47" class="g2_1" />
<path d="M295.5,813.5l0,-47" class="g2_1" />
<path d="M56.5,621.5l398,0" class="g2_1" />
<path d="M56.5,655.5l398,0" class="g2_1" />
<path d="M246.5,655.5l0,-35" class="g2_1" />
<path d="M246.5,956.5l0,-33" class="g2_1" />
<path d="M588,329L56,329l0,-67l532,0l0,67Z" class="g8_1" />
<path d="M588,435L56,435l0,-96l532,0l0,96Z" class="g8_1" />
<path d="M55,226l825,0l0,27L55,253l0,-27Z" class="g1_1" />
<path d="M65.7,280.8l0,-5.1c0,-1.8,0.3,-2.9,0.8,-3.5c0.6,-0.5,1.7,-0.8,3.5,-0.8l8.9,0c1.8,0,3,0.3,3.5,0.8c0.6,0.6,0.9,1.7,0.9,3.5l0,5.1c0,1.8,-0.3,2.9,-0.9,3.5c-0.5,0.5,-1.7,0.8,-3.5,0.8l-8.9,0c-1.8,0,-2.9,-0.3,-3.5,-0.8c-0.5,-0.6,-0.8,-1.7,-0.8,-3.5Z" class="g6_1" />
<path d="M65.7,280.8l0,-5.1c0,-1.8,0.3,-2.9,0.8,-3.5c0.6,-0.5,1.7,-0.8,3.5,-0.8l8.9,0c1.8,0,3,0.3,3.5,0.8c0.6,0.6,0.9,1.7,0.9,3.5l0,5.1c0,1.8,-0.3,2.9,-0.9,3.5c-0.5,0.5,-1.7,0.8,-3.5,0.8l-8.9,0c-1.8,0,-2.9,-0.3,-3.5,-0.8c-0.5,-0.6,-0.8,-1.7,-0.8,-3.5Z" class="g9_1" />
<path d="M65.7,357.5l0,-5c0,-1.8,0.3,-3,0.8,-3.5c0.6,-0.6,1.7,-0.9,3.5,-0.9l8.9,0c1.8,0,3,0.3,3.5,0.9c0.6,0.5,0.9,1.7,0.9,3.5l0,5c0,1.8,-0.3,3,-0.9,3.5c-0.5,0.6,-1.7,0.8,-3.5,0.8l-8.9,0c-1.8,0,-2.9,-0.2,-3.5,-0.8c-0.5,-0.5,-0.8,-1.7,-0.8,-3.5Z" class="g6_1" />
<path d="M65.7,357.5l0,-5c0,-1.8,0.3,-3,0.8,-3.5c0.6,-0.6,1.7,-0.9,3.5,-0.9l8.9,0c1.8,0,3,0.3,3.5,0.9c0.6,0.5,0.9,1.7,0.9,3.5l0,5c0,1.8,-0.3,3,-0.9,3.5c-0.5,0.6,-1.7,0.8,-3.5,0.8l-8.9,0c-1.8,0,-2.9,-0.2,-3.5,-0.8c-0.5,-0.5,-0.8,-1.7,-0.8,-3.5Z" class="g9_1" />
<path d="M606.5,288.7l0,-5c0,-1.8,0.2,-3,0.8,-3.5c0.5,-0.6,1.7,-0.9,3.5,-0.9l8.9,0c1.8,0,3,0.3,3.5,0.9c0.6,0.5,0.8,1.7,0.8,3.5l0,5c0,1.8,-0.2,3,-0.8,3.5c-0.5,0.6,-1.7,0.8,-3.5,0.8l-8.9,0c-1.8,0,-3,-0.2,-3.5,-0.8c-0.6,-0.5,-0.8,-1.7,-0.8,-3.5Z" class="g9_1" />
<path d="M606.5,326.2l0,-5c0,-1.8,0.2,-3,0.8,-3.6c0.5,-0.5,1.7,-0.8,3.5,-0.8l8.9,0c1.8,0,3,0.3,3.5,0.8c0.6,0.6,0.8,1.8,0.8,3.6l0,5c0,1.8,-0.2,3,-0.8,3.5c-0.5,0.6,-1.7,0.8,-3.5,0.8l-8.9,0c-1.8,0,-3,-0.2,-3.5,-0.8c-0.6,-0.5,-0.8,-1.7,-0.8,-3.5Z" class="g9_1" />
<path d="M606.5,382.1l0,-5c0,-1.8,0.2,-3,0.8,-3.5c0.5,-0.5,1.7,-0.8,3.5,-0.8l8.9,0c1.8,0,3,0.3,3.5,0.8c0.6,0.5,0.8,1.7,0.8,3.5l0,5c0,1.8,-0.2,3,-0.8,3.6c-0.5,0.5,-1.7,0.8,-3.5,0.8l-8.9,0c-1.8,0,-3,-0.3,-3.5,-0.8c-0.6,-0.6,-0.8,-1.8,-0.8,-3.6Z" class="g9_1" />
<path d="M230,869l-11,0l0,11l11,0l0,-11Z" class="g10_1" />
<path d="M77,978l-11,0l0,11l11,0l0,-11Z" class="g10_1" />
<path d="M77,997l-11,0l0,11l11,0l0,-11Z" class="g10_1" />
<path d="M116,397l-9,0l0,11l9,0l0,-11Z" class="g11_1" />
<path d="M116,415l-9,0l0,11l9,0l0,-11Z" class="g11_1" />
<path d="M77,1037l-11,0l0,11l11,0l0,-11Z" class="g10_1" />
<path d="M199,978l-11,0l0,11l11,0l0,-11Z" class="g10_1" />
<path d="M56.5,1015.5l398,0" class="g2_1" />
<path d="M56.5,1055.5l398,0" class="g2_1" />
<path d="M202,1037l-11,0l0,11l11,0l0,-11Z" class="g10_1" />
<path d="M320,1037l-11,0l0,11l11,0l0,-11Z" class="g10_1" />
<path d="M320,869l-11,0l0,11l11,0l0,-11Z" class="g10_1" />
<path d="M878.5,478.5l-399,0l0,657l399,0l0,-657Z" class="g2_1" />
<path d="M516.5,511.5l362,0" class="g2_1" />
<path d="M463.5,315.5l112,0" class="g2_1" />
<path d="M463.5,391.5l112,0" class="g2_1" />
<path d="M479.5,548.5l399,0" class="g2_1" />
<path d="M479.5,590.5l399,0" class="g2_1" />
<path d="M516.5,547.5l0,-69" class="g2_1" />
<path d="M680.5,511.5l0,-34" class="g2_1" />
<path d="M479.5,956.5l398,0" class="g2_1" />
<path d="M479.5,863.5l398,0" class="g2_1" />
<path d="M479.5,886.5l398,0" class="g2_1" />
<path d="M479.5,923.5l398,0" class="g2_1" />
<path d="M479.5,841.5l398,0" class="g2_1" />
<path d="M479.5,701.5l399,0" class="g2_1" />
<path d="M479.5,732.5l398,0" class="g2_1" />
<path d="M479.5,766.5l398,0" class="g2_1" />
<path d="M479.5,813.5l398,0" class="g2_1" />
<path d="M479.5,841.5l398,0" class="g2_1" />
<path d="M669.5,766.5l0,-34" class="g2_1" />
<path d="M605.5,813.5l0,-47" class="g2_1" />
<path d="M719.5,813.5l0,-47" class="g2_1" />
<path d="M479.5,621.5l398,0" class="g2_1" />
<path d="M479.5,655.5l398,0" class="g2_1" />
<path d="M669.5,655.5l0,-35" class="g2_1" />
<path d="M669.5,956.5l0,-33" class="g2_1" />
<path d="M653,869l-11,0l0,11l11,0l0,-11Z" class="g10_1" />
<path d="M500,978l-11,0l0,11l11,0l0,-11Z" class="g10_1" />
<path d="M500,997l-11,0l0,11l11,0l0,-11Z" class="g10_1" />
<path d="M500,1037l-11,0l0,11l11,0l0,-11Z" class="g10_1" />
<path d="M622,978l-11,0l0,11l11,0l0,-11Z" class="g10_1" />
<path d="M479.5,1015.5l398,0" class="g2_1" />
<path d="M479.5,1055.5l398,0" class="g2_1" />
<path d="M625,1037l-11,0l0,11l11,0l0,-11Z" class="g10_1" />
<path d="M743,1037l-11,0l0,11l11,0l0,-11Z" class="g10_1" />
<path d="M743,869l-11,0l0,11l11,0l0,-11Z" class="g10_1" />
<path d="M849,216l-214,0l0,-63l214,0l0,63Z" class="g8_1" />
<path d="M634,153l215,0l0,23l-215,0l0,-23Z" class="g1_1" />
<g clip-path="url(#c0_1)">
<path d="M16.5,1210.5l0,-27" class="g12_1" />
<path d="M16.5,1180.5l0,-1187" class="g13_1" />
</g>
</svg>