<?xml version="1.0" encoding="UTF-8" standalone="no"?>
<!DOCTYPE svg PUBLIC "-//W3C//DTD SVG 1.1//EN"
"http://www.w3.org/Graphics/SVG/1.1/DTD/svg11.dtd">
<svg version="1.1" xmlns="http://www.w3.org/2000/svg" xmlns:xlink="http://www.w3.org/1999/xlink">
<defs>
<clipPath id="c0_3"><path d="M0.5,1210.5L0.5,0.5l935,0l0,1210Z" /></clipPath>
<style type="text/css"><![CDATA[
.g3_3{
fill: #00447B;
}
.g7_3{
fill: none;
stroke: #231F20;
stroke-width: 1;
stroke-linecap: butt;
stroke-linejoin: miter;
stroke-miterlimit: 4;
stroke-dasharray: 8,8,8,8,8,8;
}
.g5_3{
fill: #95A3AD;
}
.g6_3{
fill: none;
stroke: #231F20;
stroke-width: 1;
stroke-linecap: butt;
stroke-linejoin: miter;
stroke-miterlimit: 4;
stroke-dasharray: 8,8,8,8;
}
.g8_3{
fill: none;
stroke: #231F20;
stroke-width: 1;
stroke-linecap: butt;
stroke-linejoin: miter;
stroke-miterlimit: 4;
}
.g2_3{
fill: none;
stroke: #45555F;
stroke-width: 2;
stroke-linecap: butt;
stroke-linejoin: miter;
}
.g4_3{
fill: #E8E9EA;
}
.g1_3{
fill: none;
stroke: #95A3AD;
stroke-width: 1;
stroke-linecap: butt;
stroke-linejoin: miter;
stroke-miterlimit: 4;
}
]]></style>
</defs>
<path d="M96.5,390.5l357,0" class="g1_3" />
<path d="M96.5,875.5l738,0" class="g1_3" />
<path d="M96.5,1113.5l738,0" class="g1_3" />
<path d="M106,285l-11,0l0,11l11,0l0,-11Z" class="g2_3" />
<path d="M106.8,30.1l0,3.1l-4.9,0l0,-3.1l-8.6,0l0,3.6l-5.1,0l0,-3.6l-6.6,0l0,28.4c1.7,-5.7,6.7,-15.8,20.9,-18.1C113,38.8,114,34.8,115.1,32.7l0,-2.6Z" class="g3_3" />
<path d="M115.4,34.8c-1.1,2,-2,6,-12.3,7.3C90.1,43.8,85,52.7,83,58.3c2.8,-3.8,8.1,-6.6,8.4,-6.7L92,51.3c-3.2,3.2,-5.2,5.9,-6.5,8.1c3.1,-2.4,7.8,-4.6,14.9,-4.8c16.2,-0.5,15,-19.8,15,-19.8Z" class="g3_3" />
<path d="M81.9,61.5c0,0,-0.8,1.7,-0.5,3.5c0,0,0.5,0.8,1.3,-0.2c0,0,-0.5,-3.7,5.1,-9.7c0,0,-4.6,3,-5.9,6.4Z" class="g3_3" />
<path d="M128.6,31.8l0,9.2l5.2,0c0.4,0,0.7,-0.1,1,-0.3c0.4,-0.2,0.6,-0.4,0.8,-0.8l0,4c-0.2,-0.3,-0.3,-0.6,-0.7,-0.8c-0.3,-0.2,-0.6,-0.2,-1,-0.2l-5.3,-0.1l0,11.6c0,0.7,0.2,0.9,0.6,1.4c0.4,0.4,1.2,0.7,1.2,0.7l-7.5,0.1c0.1,-0.1,0.9,-0.5,1.3,-0.9c0.4,-0.4,0.6,-0.8,0.6,-1.3l0,-21.5c0,-0.7,-0.3,-1.3,-0.7,-1.7c-0.5,-0.5,-1.4,-1.1,-1.5,-1.1l17.1,0l0,3.2c-0.3,-0.5,-0.6,-0.8,-1.2,-1C138,32,137.6,31.8,136.9,31.8Z" class="g3_3" />
<path d="M141.4,47.6c0,3.7,1.1,8.2,5.5,8.3c4.1,0,5.3,-4.7,5.2,-8.5c0,-3.7,-1.7,-8.2,-5.4,-8.1c-4.1,0,-5.3,4.5,-5.3,8.3m14.4,-0.1c0,4.9,-3.9,9.7,-9,9.6c-5.3,0,-9,-4.4,-9,-9.5c0,-4.9,3.6,-9.6,9,-9.6c5.1,0,8.9,4.6,9,9.5Z" class="g3_3" />
<path d="M162.8,55.1c0,0.4,0.2,0.6,0.5,0.9c0.2,0.2,0.4,0.4,0.8,0.5l-5.6,0c0.1,0,0.6,-0.3,0.8,-0.5c0.2,-0.2,0.4,-0.5,0.4,-0.8l0,-15.3c0,-0.4,-0.3,-0.5,-0.6,-0.8c-0.3,-0.2,-0.9,-0.4,-1.1,-0.4l4.8,-1.2l0,3.9c1.4,-1.7,3,-3.6,4.8,-3.6c0.7,0.1,1.1,0.2,1.7,0.5l0,2.8c-0.9,-0.5,-1.6,-0.7,-2.6,-0.7c-1.2,0,-2.7,0.8,-3.9,2.2Z" class="g3_3" />
<path d="M172.1,39.8l4.9,-5l0,3.5l5.5,0l0,1.6l-5.5,0L177,52c0,1.8,1.7,3.4,3.7,3.4c1.8,0,2.7,-0.9,2.9,-1.1c-0.1,0.1,-0.6,2.8,-4.3,2.9c-3,0,-5.3,-2.1,-5.3,-5.3l0,-12.1Z" class="g3_3" />
<path d="M190.9,55.1c0,0.4,0.2,0.6,0.5,0.9c0.2,0.2,0.4,0.4,0.8,0.5l-5.5,0c0,0,0.5,-0.3,0.7,-0.5c0.2,-0.2,0.4,-0.5,0.4,-0.8l0,-15.3c0,-0.4,-0.3,-0.5,-0.6,-0.8c-0.3,-0.2,-0.9,-0.4,-1,-0.4l4.7,-1.2l0,3.9c1.4,-1.7,3.1,-3.6,4.9,-3.6c0.6,0.1,1,0.2,1.6,0.5l0,2.8c-0.9,-0.5,-1.5,-0.7,-2.6,-0.7c-1.2,0,-2.7,0.8,-3.9,2.2Z" class="g3_3" />
<path d="M212.7,44.6C213,43,211.1,39.5,208.4,39.5c-4.1,-0.1,-5.5,4.2,-5.4,5.1Zm3.5,6.6c0,0,-0.7,5.9,-8.1,6c-4.9,0,-8.9,-4.1,-8.9,-9.5c-0.1,-5.1,3.9,-9.6,9.3,-9.4c7,0.1,7.8,6.5,7.8,8l-13.4,0c-1.1,2.8,1.4,8.3,6.5,8.5c4.4,0.2,6.7,-3.6,6.8,-3.6Z" class="g3_3" />
<path d="M229.4,43.5c0,-0.1,-0.9,-4,-4.5,-4.1c-1.7,0,-3.4,0.5,-3.4,2.3c0,2.3,3.2,3.7,5.1,4.6c2.6,1.2,4.4,3.8,4.3,5.5c-0.1,3.1,-2.6,5.3,-6.6,5.3c-2.3,0,-4.5,-0.8,-5.5,-1.6l0,-4.9c0,0,1.8,5.2,5.6,5.1c1.4,0,3.5,-1,3.4,-3.3c0,-1.5,-1.6,-3,-3.5,-3.8c-2.8,-1.2,-5.6,-2.9,-5.5,-5.9c0,-3.1,2.9,-4.8,6,-4.7c3.1,0,4.6,1.5,4.6,1.5Z" class="g3_3" />
<path d="M243.4,43.5c0,-0.1,-0.9,-4,-4.6,-4.1c-1.6,0,-3.3,0.5,-3.3,2.3c0,2.3,3.2,3.7,5.1,4.6c2.6,1.2,4.4,3.8,4.3,5.5c-0.1,3.1,-2.6,5.3,-6.7,5.3c-2.2,0,-4.4,-0.8,-5.4,-1.6l0,-4.9c0,0,1.8,5.2,5.6,5.1c1.4,0,3.5,-1,3.4,-3.3c0,-1.5,-1.6,-3,-3.6,-3.8c-2.7,-1.2,-5.5,-2.9,-5.4,-5.9c0,-3.1,2.9,-4.8,6,-4.7c3.1,0,4.6,1.5,4.6,1.5Z" class="g3_3" />
<path d="M124.1,64.4c0,-0.3,0,-0.7,0,-1.1c0.3,0,0.5,0,0.8,0c0.3,0,0.5,0,0.8,0c0.5,0,0.9,0,1.2,0c0.3,0,0.6,0,0.7,0c0,0.1,0,0.2,0,0.4c0,0.1,0,0.1,0,0.2c0,0,0,0.1,0,0.2C127.4,64.1,127.2,64,127,64c-0.2,0,-0.4,0,-0.6,0c-0.2,0,-0.4,0,-0.5,0c-0.2,0,-0.3,0,-0.4,0c0,0.3,0,0.6,0,0.9c0,0.4,0,0.7,0,1c0.4,0,0.8,0,1.1,0c0.3,0,0.6,0,1,0c-0.1,0.1,-0.1,0.1,-0.1,0.2c0,0,0,0.1,0,0.2c0,0,0,0.1,0,0.1c0,0.1,0.1,0.1,0.1,0.2c-0.7,0,-1.4,0,-2.1,0l0,0.4c0,0.5,0,1,0,1.4c0,0.3,0.1,0.7,0.1,1.1c-0.1,0,-0.2,0,-0.4,0l-0.4,0l-0.4,0c-0.1,0,-0.2,0,-0.3,0c0,-0.4,0,-0.8,0,-1.1c0.1,-0.4,0.1,-0.9,0.1,-1.4l0,-1.2c0,-0.5,0,-1,-0.1,-1.4Z" class="g3_3" />
<path d="M134.5,69.5c-0.4,-0.1,-0.7,-0.2,-0.9,-0.4c-0.3,-0.2,-0.5,-0.4,-0.6,-0.7c-0.1,-0.3,-0.2,-0.7,-0.2,-1.1c0,-0.3,0,-0.5,0,-0.7c0,-0.2,0,-0.4,0,-0.5c0,-0.2,0,-0.3,0,-0.5c0,-0.1,0,-0.3,0,-0.5c0,-0.4,0,-0.8,0,-1.1c0,-0.3,0,-0.6,0,-0.7c0.1,0,0.2,0,0.3,0c0.2,0,0.3,0,0.4,0c0.1,0,0.3,0,0.4,0c0.1,0,0.2,0,0.4,0c-0.1,0.6,-0.1,1.1,-0.1,1.6c-0.1,0.5,-0.1,1,-0.1,1.5c0,0.6,0.1,1,0.2,1.4c0,0.3,0.1,0.6,0.3,0.8c0.2,0.1,0.3,0.3,0.6,0.3c0.2,0.1,0.5,0.1,0.8,0.1c0.3,0,0.6,-0.1,0.8,-0.2c0.2,-0.2,0.4,-0.5,0.5,-0.8c0.1,-0.3,0.1,-0.6,0.2,-1c0,-0.4,0,-0.8,0,-1.2c0,-0.4,0,-0.9,0,-1.3c0,-0.4,0,-0.8,-0.1,-1.2c0.1,0,0.2,0,0.3,0c0.1,0,0.1,0,0.2,0c0.1,0,0.2,0,0.2,0c0.1,0,0.2,0,0.3,0c-0.1,0.1,-0.1,0.3,-0.1,0.5c0,0.2,0,0.5,0,0.8c0,0.3,0,0.6,-0.1,1c0,0.3,0,0.7,0,1.1c0,1,-0.2,1.8,-0.6,2.2c-0.5,0.5,-1.2,0.7,-2,0.7c-0.4,0,-0.8,0,-1.1,-0.1Z" class="g3_3" />
<path d="M143.9,64c0,-0.3,0,-0.5,0,-0.7c0.2,0,0.3,0,0.4,0c0.1,0,0.2,0,0.4,0c0.7,0.7,1.3,1.4,2,2.1c0.6,0.7,1.3,1.5,1.9,2.2l0,-0.8l0,-0.9c0,-0.3,0,-0.6,0,-0.9c0,-0.2,0,-0.5,0,-0.7c0,-0.3,0,-0.5,0,-0.7c0,-0.1,0,-0.3,0,-0.3c0.2,0,0.3,0,0.4,0c0.1,0,0.2,0,0.4,0c0,0.5,-0.1,1,-0.1,1.5c0,0.4,0,0.8,0,1.2c0,0.4,0,0.8,0,1.2c0,0.4,0,0.8,0,1.2l0,1.1c-0.2,0,-0.3,0,-0.4,0c-0.1,0,-0.3,0,-0.4,0c-1.2,-1.4,-2.5,-2.9,-3.9,-4.4c0,0.2,-0.1,0.4,-0.1,0.5c0,0.2,0,0.4,0,0.6l0,1c0,0.4,0,0.7,0,1c0,0.2,0.1,0.4,0.1,0.6c0,0.2,0,0.3,0,0.4c0,0.1,0,0.2,0,0.3c-0.1,0,-0.2,0,-0.2,0l-0.2,0c-0.2,0,-0.3,0,-0.5,0c0.1,0,0.1,-0.2,0.1,-0.5c0,-0.3,0,-0.7,0.1,-1.1c0,-0.4,0,-0.9,0,-1.4c0,-0.5,0,-1,0,-1.4c0,-0.4,0,-0.8,0,-1.1Z" class="g3_3" />
<path d="M156.3,67.7l0,0.5c0,0.2,0,0.4,0,0.5c0,0.2,0,0.2,0,0.3c0.1,0,0.2,0,0.3,0c0.1,0,0.3,0,0.5,0c0.7,0,1.2,-0.2,1.6,-0.7c0.4,-0.5,0.6,-1.2,0.6,-2.1c0,-0.4,-0.1,-0.7,-0.2,-1c-0.1,-0.3,-0.2,-0.6,-0.4,-0.8c-0.2,-0.2,-0.4,-0.3,-0.6,-0.4c-0.3,-0.2,-0.6,-0.2,-0.9,-0.2c-0.2,0,-0.4,0,-0.5,0c-0.2,0,-0.3,0,-0.4,0c0,0.1,0,0.2,0,0.3c0,0.2,0,0.3,0,0.5l0,0.6l0,0.4l0,1.6Zm-1.4,-3.3c0,-0.3,0,-0.7,-0.1,-1.1c0.1,0,0.3,0,0.4,0c0.1,0,0.2,0,0.4,0c0.2,0,0.4,0,0.7,0c0.2,0,0.5,0,0.9,0c0.6,0,1,0,1.5,0.1c0.4,0.1,0.7,0.3,1.1,0.5c0.3,0.2,0.5,0.5,0.7,0.9c0.1,0.4,0.2,0.8,0.2,1.4c0,0.5,-0.1,1,-0.2,1.4c-0.2,0.4,-0.4,0.7,-0.7,1c-0.3,0.3,-0.6,0.5,-1,0.7c-0.4,0.1,-0.8,0.2,-1.2,0.2c-0.5,0,-0.9,0,-1.2,0c-0.3,0,-0.6,0,-0.8,0l-0.4,0c-0.1,0,-0.3,0,-0.4,0c0.1,-0.4,0.1,-0.8,0.1,-1.1c0,-0.4,0,-0.9,0,-1.4l0,-1.2c0,-0.5,0,-1,0,-1.4Z" class="g3_3" />
<path d="M170.1,67.5c0,0.6,-0.1,1.3,-0.1,2c-0.1,0,-0.2,0,-0.2,0l-0.2,0l-0.3,0c0,0,-0.1,0,-0.2,0c0.2,-1,0.4,-2.1,0.5,-3.1c0.2,-1,0.3,-2.1,0.5,-3.1c0,0,0.1,0,0.1,0c0.1,0,0.2,0,0.2,0c0.1,0,0.1,0,0.2,0c0.1,0,0.1,0,0.2,0c0.2,0.3,0.3,0.7,0.5,1.1c0.2,0.4,0.4,0.7,0.5,1.1c0.2,0.4,0.4,0.7,0.6,1.1c0.2,0.3,0.3,0.7,0.5,1c0.4,-0.7,0.7,-1.4,1.1,-2.1c0.3,-0.8,0.7,-1.5,1,-2.2c0.2,0,0.3,0,0.4,0c0.1,0,0.2,0,0.4,0c0,0.5,0.1,1.1,0.2,1.7c0,0.6,0.1,1.1,0.2,1.7c0,0.6,0.1,1.1,0.2,1.6c0.1,0.5,0.1,0.9,0.2,1.2c-0.2,0,-0.3,0,-0.4,0l-0.4,0l-0.3,0c-0.2,0,-0.3,0,-0.4,0c-0.1,-0.6,-0.1,-1.3,-0.2,-2c0,-0.7,-0.1,-1.5,-0.2,-2.2c-0.4,0.7,-0.7,1.4,-1,2.1c-0.4,0.7,-0.7,1.4,-1,2.1c0,0,-0.1,0,-0.1,0c0,0,-0.1,0,-0.1,0l-0.1,0l-0.1,0c-0.3,-0.7,-0.6,-1.4,-0.9,-2c-0.4,-0.7,-0.7,-1.4,-1,-2.1l-0.1,0c-0.1,0.7,-0.1,1.4,-0.2,2.1Z" class="g3_3" />
<path d="M183.6,65c-0.2,0.3,-0.3,0.7,-0.5,1.1c-0.1,0.3,-0.2,0.7,-0.4,1l1.7,0c-0.1,-0.3,-0.3,-0.7,-0.4,-1c-0.1,-0.4,-0.3,-0.8,-0.4,-1.1m3.2,4.5c-0.1,0,-0.3,0,-0.4,0l-0.4,0l-0.4,0c-0.1,0,-0.2,0,-0.4,0c-0.1,-0.3,-0.2,-0.6,-0.3,-0.9c-0.1,-0.3,-0.2,-0.6,-0.3,-0.9c-0.2,0,-0.4,0,-0.6,0c-0.2,0,-0.4,0,-0.6,0c-0.1,0,-0.3,0,-0.4,0c-0.2,0,-0.3,0,-0.5,0c-0.1,0.3,-0.2,0.6,-0.3,0.9c-0.1,0.3,-0.2,0.6,-0.3,0.9c-0.1,0,-0.2,0,-0.2,0l-0.2,0l-0.3,0c0,0,-0.1,0,-0.2,0c0.1,-0.2,0.2,-0.4,0.3,-0.7c0.1,-0.2,0.3,-0.5,0.4,-0.9c0.1,-0.3,0.3,-0.7,0.5,-1.1c0.1,-0.4,0.3,-0.8,0.5,-1.2c0.1,-0.5,0.3,-0.9,0.5,-1.3c0.1,-0.4,0.3,-0.7,0.4,-1.1c0.1,0,0.1,0.1,0.2,0.1c0,0,0.1,0,0.1,0c0.1,0,0.2,0,0.2,0c0.1,0,0.1,-0.1,0.2,-0.1c0.2,0.5,0.4,1.1,0.6,1.7c0.2,0.6,0.4,1.1,0.7,1.7c0.2,0.6,0.4,1.1,0.6,1.6c0.2,0.5,0.4,0.9,0.6,1.3Z" class="g3_3" />
<path d="M191.8,64c0,-0.3,0,-0.5,0,-0.7c0.2,0,0.3,0,0.4,0c0.1,0,0.2,0,0.4,0c0.7,0.7,1.3,1.4,2,2.1c0.6,0.7,1.3,1.5,1.9,2.2l0,-0.8l0,-0.9c0,-0.3,0,-0.6,0,-0.9c0,-0.2,0,-0.5,0,-0.7c0,-0.3,0,-0.5,0,-0.7c0,-0.1,0,-0.3,0,-0.3c0.1,0,0.3,0,0.4,0c0.1,0,0.2,0,0.4,0c0,0.5,-0.1,1,-0.1,1.5c0,0.4,0,0.8,0,1.2c0,0.4,0,0.8,0,1.2c0,0.4,0,0.8,0,1.2l0,1.1c-0.2,0,-0.3,0,-0.4,0c-0.2,0,-0.3,0,-0.4,0c-1.2,-1.4,-2.5,-2.9,-3.9,-4.4c-0.1,0.2,-0.1,0.4,-0.1,0.5c0,0.2,0,0.4,0,0.6l0,1c0,0.4,0,0.7,0,1c0,0.2,0,0.4,0.1,0.6c0,0.2,0,0.3,0,0.4c0,0.1,0,0.2,0,0.3c-0.1,0,-0.2,0,-0.2,0l-0.2,0c-0.2,0,-0.3,0,-0.5,0c0.1,0,0.1,-0.2,0.1,-0.5c0,-0.3,0,-0.7,0,-1.1c0.1,-0.4,0.1,-0.9,0.1,-1.4c0,-0.5,0,-1,0,-1.4c0,-0.4,0,-0.8,0,-1.1Z" class="g3_3" />
<path d="M204.6,65c-0.2,0.3,-0.3,0.7,-0.5,1.1c-0.1,0.3,-0.3,0.7,-0.4,1l1.7,0c-0.2,-0.3,-0.3,-0.7,-0.4,-1c-0.2,-0.4,-0.3,-0.8,-0.4,-1.1m3.2,4.5c-0.2,0,-0.3,0,-0.4,0l-0.4,0l-0.4,0c-0.1,0,-0.3,0,-0.4,0c-0.1,-0.3,-0.2,-0.6,-0.3,-0.9c-0.1,-0.3,-0.2,-0.6,-0.3,-0.9c-0.2,0,-0.4,0,-0.6,0c-0.2,0,-0.4,0,-0.6,0c-0.1,0,-0.3,0,-0.5,0c-0.1,0,-0.3,0,-0.4,0c-0.2,0.3,-0.3,0.6,-0.4,0.9c-0.1,0.3,-0.2,0.6,-0.3,0.9c0,0,-0.1,0,-0.2,0l-0.2,0l-0.2,0c-0.1,0,-0.1,0,-0.2,0c0,-0.2,0.1,-0.4,0.3,-0.7c0.1,-0.2,0.2,-0.5,0.4,-0.9c0.1,-0.3,0.3,-0.7,0.4,-1.1c0.2,-0.4,0.4,-0.8,0.5,-1.2c0.2,-0.5,0.4,-0.9,0.5,-1.3c0.2,-0.4,0.3,-0.7,0.5,-1.1c0,0,0.1,0.1,0.1,0.1c0.1,0,0.1,0,0.2,0c0.1,0,0.1,0,0.2,0c0,0,0.1,-0.1,0.1,-0.1c0.2,0.5,0.4,1.1,0.7,1.7c0.2,0.6,0.4,1.1,0.6,1.7c0.3,0.6,0.5,1.1,0.7,1.6c0.2,0.5,0.4,0.9,0.6,1.3Z" class="g3_3" />
<path d="M216.8,64c-0.3,-0.2,-0.7,-0.3,-1.1,-0.3c-0.3,0,-0.6,0.1,-0.8,0.2c-0.3,0.1,-0.6,0.3,-0.8,0.5c-0.2,0.3,-0.4,0.6,-0.5,0.9c-0.1,0.4,-0.2,0.8,-0.2,1.3c0,0.3,0.1,0.7,0.2,1c0.1,0.3,0.2,0.5,0.4,0.8c0.2,0.2,0.4,0.4,0.7,0.5c0.2,0.1,0.6,0.2,0.9,0.2c0.1,0,0.2,0,0.3,0c0.1,0,0.2,0,0.3,-0.1c0.1,0,0.2,0,0.2,0c0.1,0,0.2,-0.1,0.2,-0.1c0,-0.1,0,-0.1,0,-0.3c0,-0.1,0,-0.2,0,-0.3c0,-0.5,0,-0.9,0,-1.1c0,-0.2,0,-0.4,0,-0.5c0,0,0.1,0,0.2,0.1c0.1,0,0.3,0,0.4,0c0.3,0,0.4,0,0.5,0c0.1,-0.1,0.2,-0.1,0.3,-0.1c0,0.1,-0.1,0.2,-0.1,0.3c0,0.1,0,0.2,0,0.3c0,0.2,0,0.3,0,0.5c0,0.2,0,0.3,0,0.5l0,0.2c0,0.2,0,0.3,0,0.5c0,0.1,0,0.2,0,0.2c-0.4,0.2,-0.8,0.3,-1.2,0.3c-0.4,0.1,-0.8,0.1,-1.2,0.1c-0.5,0,-1,0,-1.4,-0.2c-0.5,-0.1,-0.9,-0.3,-1.2,-0.6c-0.3,-0.2,-0.5,-0.6,-0.7,-0.9c-0.2,-0.4,-0.3,-0.8,-0.3,-1.3c0,-0.6,0.1,-1.1,0.3,-1.5c0.2,-0.4,0.5,-0.8,0.8,-1.1c0.3,-0.3,0.7,-0.5,1.2,-0.6c0.4,-0.2,0.9,-0.2,1.5,-0.2c0.4,0,0.8,0,1.2,0.1c0.3,0.1,0.6,0.2,1,0.4c-0.1,0.2,-0.1,0.3,-0.2,0.5c0,0.1,-0.1,0.3,-0.1,0.4l-0.1,0C217.3,64.4,217,64.1,216.8,64Z" class="g3_3" />
<path d="M223.3,64.4c-0.1,-0.3,-0.1,-0.7,-0.1,-1.1c0.3,0,0.6,0,0.8,0c0.3,0,0.6,0,0.8,0c0.5,0,0.9,0,1.2,0c0.4,0,0.6,0,0.7,0c0,0.1,0,0.2,0,0.4c0,0.1,0,0.1,0,0.2c0,0,0,0.1,0,0.2c-0.2,0,-0.3,-0.1,-0.6,-0.1c-0.2,0,-0.4,0,-0.6,0c-0.2,0,-0.3,0,-0.5,0c-0.2,0,-0.3,0,-0.3,0c-0.1,0.3,-0.1,0.6,-0.1,0.9c0,0.4,0,0.7,0,1c0.4,0,0.8,0,1.1,0c0.3,0,0.6,0,1,0c0,0.1,0,0.1,0,0.2c-0.1,0,-0.1,0.1,-0.1,0.2c0,0,0,0.1,0.1,0.1c0,0.1,0,0.1,0,0.2c-0.7,0,-1.4,0,-2.1,0c0,0.1,0,0.3,0,0.5c0,0.2,0,0.4,0,0.6c0,0.4,0,0.8,0,1.2c0.4,0,0.7,-0.1,1.1,-0.1c0.3,0,0.7,0,1,-0.1c0,0.1,0,0.2,0,0.2c0,0.1,0,0.1,0,0.2c0,0.1,0,0.2,0,0.3c0,0,0,0.1,0,0.1c-0.1,0,-0.3,0,-0.6,0c-0.2,0,-0.5,0,-1,0l-0.9,0l-0.5,0c-0.1,0,-0.2,0,-0.3,0c-0.1,0,-0.1,0,-0.2,0c0,-0.4,0,-0.8,0.1,-1.1c0,-0.4,0,-0.9,0,-1.4l0,-1.2c0,-0.5,0,-1,0,-1.4Z" class="g3_3" />
<path d="M234.6,64.3c-0.1,-0.1,-0.1,-0.2,-0.2,-0.3c-0.2,-0.1,-0.3,-0.1,-0.5,-0.2c-0.2,0,-0.4,0,-0.6,0c0,0.8,-0.1,1.6,-0.1,2.5c0.1,0,0.1,0,0.2,0c0.5,0,0.8,-0.1,1,-0.3c0.2,-0.3,0.3,-0.6,0.3,-1c0,-0.3,0,-0.5,-0.1,-0.7m-1.4,2.3l0,0.4c0,0.5,0.1,1,0.1,1.4c0,0.3,0,0.7,0,1.1c-0.1,0,-0.2,0,-0.3,0l-0.4,0l-0.4,0c-0.2,0,-0.3,0,-0.4,0c0.1,-0.4,0.1,-0.8,0.1,-1.1c0,-0.4,0,-0.9,0,-1.4l0,-1.2c0,-0.5,0,-1,0,-1.4c0,-0.3,0,-0.7,-0.1,-1.1c0.1,0,0.2,0,0.4,0c0.1,0,0.2,0,0.4,0c0.1,0,0.3,0,0.5,0c0.2,0,0.5,0,0.8,0c0.2,0,0.4,0,0.6,0c0.2,0,0.3,0,0.4,0c0.1,0.1,0.2,0.1,0.3,0.1c0.1,0.1,0.2,0.1,0.3,0.2c0.2,0.1,0.3,0.3,0.4,0.5c0.1,0.2,0.2,0.4,0.2,0.7c0,0.4,-0.1,0.8,-0.4,1.1c-0.2,0.2,-0.6,0.4,-1,0.5c0.3,0.6,0.6,1.1,0.9,1.6c0.3,0.5,0.7,1,1,1.5c-0.1,0,-0.3,0,-0.4,0l-0.4,0l-0.4,0c-0.2,0,-0.3,0,-0.4,0l-1.7,-2.9Z" class="g3_3" />
<path d="M243,63.7c-0.2,0,-0.5,0.1,-0.6,0.3c-0.2,0.1,-0.3,0.3,-0.3,0.5c0,0.3,0.1,0.4,0.2,0.6c0.1,0.1,0.3,0.3,0.5,0.4c0.2,0.1,0.4,0.2,0.7,0.3c0.2,0.1,0.4,0.2,0.6,0.4c0.2,0.1,0.4,0.3,0.5,0.5c0.2,0.3,0.2,0.6,0.2,0.9c0,0.3,0,0.6,-0.1,0.8c-0.1,0.3,-0.3,0.5,-0.5,0.7c-0.2,0.1,-0.5,0.3,-0.8,0.4c-0.3,0.1,-0.6,0.1,-1,0.1c-0.3,0,-0.6,0,-0.8,-0.1c-0.3,-0.1,-0.5,-0.1,-0.6,-0.2c0,-0.3,0.1,-0.4,0.1,-0.6c0.1,-0.2,0.1,-0.4,0.1,-0.6l0.2,0c0,0.1,0.1,0.3,0.1,0.4c0.1,0.1,0.2,0.2,0.3,0.3c0.1,0.1,0.2,0.2,0.4,0.2c0.1,0.1,0.3,0.1,0.5,0.1c0.3,0,0.6,-0.1,0.8,-0.3c0.1,-0.2,0.2,-0.4,0.2,-0.6c0,-0.3,0,-0.5,-0.2,-0.6c-0.1,-0.1,-0.3,-0.3,-0.5,-0.4c-0.2,-0.1,-0.4,-0.2,-0.6,-0.3c-0.3,-0.1,-0.5,-0.2,-0.7,-0.4c-0.2,-0.1,-0.3,-0.3,-0.5,-0.6C241.1,65.7,241,65.4,241,65.1c0,-0.3,0.1,-0.6,0.2,-0.8c0.1,-0.3,0.3,-0.5,0.4,-0.6c0.2,-0.2,0.4,-0.3,0.7,-0.4c0.2,-0.1,0.5,-0.1,0.8,-0.1c0.3,0,0.6,0,0.8,0.1c0.3,0.1,0.5,0.2,0.7,0.3c-0.1,0.1,-0.1,0.3,-0.2,0.4c0,0.1,-0.1,0.3,-0.1,0.5l-0.2,0C243.9,64,243.6,63.7,243,63.7Z" class="g3_3" />
<path d="M906,180l-215,0l0,-62l215,0l0,62Z" class="g4_3" />
<path d="M691,118l215,0l0,23l-215,0l0,-23Z" class="g5_3" />
<path d="M45,146l638,0l0,22L45,168l0,-22Z" class="g5_3" />
<path d="M507.5,390.5l357,0" class="g1_3" />
<path d="M517,285l-11,0l0,11l11,0l0,-11Z" class="g2_3" />
<path d="M106,430l-11,0l0,11l11,0l0,-11Z" class="g2_3" />
<path d="M517,430l-11,0l0,11l11,0l0,-11Z" class="g2_3" />
<path d="M106,509l-11,0l0,11l11,0l0,-11Z" class="g2_3" />
<path d="M517,509l-11,0l0,11l11,0l0,-11Z" class="g2_3" />
<path d="M55.5,276.5l820,0" class="g1_3" />
<path d="M55.5,421.5l820,0" class="g1_3" />
<path d="M55.5,500.5l820,0" class="g1_3" />
<path d="M875.5,549.5l-820,0l0,-298l820,0l0,298Z" class="g1_3" />
<path d="M466.5,549.5l0,-298" class="g1_3" />
<path d="M55.5,682.5l820,0" class="g1_3" />
<path d="M55.5,725.5l820,0" class="g1_3" />
<path d="M55.5,751.5l820,0" class="g1_3" />
<path d="M55.5,777.5l820,0" class="g1_3" />
<path d="M55.5,804.5l820,0" class="g1_3" />
<path d="M55.5,898.5l820,0" class="g1_3" />
<path d="M875.5,1135.5l-820,0l0,-478l820,0l0,478Z" class="g1_3" />
<path d="M372.5,803.5l0,-120" class="g1_3" />
<path d="M622.5,803.5l0,-120" class="g1_3" />
<path d="M55.5,925.5l820,0" class="g1_3" />
<path d="M55.5,967.5l820,0" class="g1_3" />
<path d="M55.5,994.5l820,0" class="g1_3" />
<path d="M55.5,1020.5l820,0" class="g1_3" />
<path d="M55.5,1046.5l820,0" class="g1_3" />
<path d="M372.5,1046.5l0,-121" class="g1_3" />
<path d="M622.5,1046.5l0,-121" class="g1_3" />
<g clip-path="url(#c0_3)">
<path d="M16.5,1210.5l0,-27" class="g6_3" />
<path d="M16.5,1180.5l0,-1187" class="g7_3" />
<path d="M0.5,1208.5l0,-1209" class="g8_3" />
</g>
</svg>