<?xml version="1.0" encoding="UTF-8" standalone="no"?>
<!DOCTYPE svg PUBLIC "-//W3C//DTD SVG 1.1//EN"
"http://www.w3.org/Graphics/SVG/1.1/DTD/svg11.dtd">
<svg version="1.1" xmlns="http://www.w3.org/2000/svg" xmlns:xlink="http://www.w3.org/1999/xlink">
<defs>
<clipPath id="c0_2"><path d="M0.5,1210.5L0.5,0.5l935,0l0,1210Z" /></clipPath>
<style type="text/css"><![CDATA[
.g3_2{
fill: #00447B;
}
.g7_2{
fill: none;
stroke: #231F20;
stroke-width: 1;
stroke-linecap: butt;
stroke-linejoin: miter;
stroke-miterlimit: 4;
stroke-dasharray: 8,8,8,8,8,8;
}
.g5_2{
fill: #95A3AD;
}
.g6_2{
fill: none;
stroke: #231F20;
stroke-width: 1;
stroke-linecap: butt;
stroke-linejoin: miter;
stroke-miterlimit: 4;
stroke-dasharray: 8,8,8,8;
}
.g2_2{
fill: none;
stroke: #45555F;
stroke-width: 2;
stroke-linecap: butt;
stroke-linejoin: miter;
}
.g4_2{
fill: #E8E9EA;
}
.g1_2{
fill: none;
stroke: #95A3AD;
stroke-width: 1;
stroke-linecap: butt;
stroke-linejoin: miter;
stroke-miterlimit: 4;
}
]]></style>
</defs>
<path d="M261.5,340.5l619,0" class="g1_2" />
<path d="M287.5,472.5l593,0" class="g1_2" />
<path d="M383.5,789.5l497,0" class="g1_2" />
<path d="M472.5,578.5l163,0" class="g1_2" />
<path d="M47.5,373.5l833,0" class="g1_2" />
<path d="M47.5,503.5l833,0" class="g1_2" />
<path d="M106,731l-11,0l0,11l11,0l0,-11Z" class="g2_2" />
<path d="M106,634l-11,0l0,11l11,0l0,-11Z" class="g2_2" />
<path d="M222,634l-11,0l0,11l11,0l0,-11Z" class="g2_2" />
<path d="M356,634l-11,0l0,11l11,0l0,-11Z" class="g2_2" />
<path d="M106,432l-11,0l0,11l11,0l0,-11Z" class="g2_2" />
<path d="M222,432l-11,0l0,11l11,0l0,-11Z" class="g2_2" />
<path d="M106,288l-11,0l0,11l11,0l0,-11Z" class="g2_2" />
<path d="M168,288l-11,0l0,11l11,0l0,-11Z" class="g2_2" />
<path d="M356,432l-11,0l0,11l11,0l0,-11Z" class="g2_2" />
<path d="M489,634l-11,0l0,11l11,0l0,-11Z" class="g2_2" />
<path d="M106,816l-11,0l0,11l11,0l0,-11Z" class="g2_2" />
<path d="M107.1,31l0,3.1l-4.9,0l0,-3.1l-8.6,0l0,3.6l-5.1,0l0,-3.6L82,31l0,28.4c1.6,-5.7,6.6,-15.9,20.8,-18.1c10.5,-1.6,11.5,-5.6,12.7,-7.7l0,-2.6Z" class="g3_2" />
<path d="M115.8,35.7c-1.2,2,-2.1,6,-12.4,7.3C90.4,44.7,85.3,53.6,83.3,59.2c2.8,-3.9,8.2,-6.6,8.4,-6.8l0.6,-0.2c-3.2,3.2,-5.2,5.9,-6.5,8c3.1,-2.3,7.8,-4.5,14.9,-4.7C116.9,55,115.8,35.7,115.8,35.7Z" class="g3_2" />
<path d="M82.3,62.3c0,0,-0.9,1.8,-0.6,3.6c0,0,0.5,0.8,1.4,-0.2c0,0,-0.5,-3.7,5,-9.7c0,0,-4.6,3,-5.8,6.3Z" class="g3_2" />
<path d="M128.9,32.7l0,9.2l5.2,0c0.4,0,0.7,-0.1,1,-0.3c0.4,-0.2,0.6,-0.5,0.8,-0.9l0,4.1c-0.2,-0.3,-0.3,-0.6,-0.7,-0.8c-0.3,-0.2,-0.6,-0.3,-1,-0.3l-5.3,0l0,11.6c0,0.7,0.3,0.9,0.7,1.4c0.3,0.4,1.1,0.7,1.1,0.7l-7.4,0.1c0.1,-0.1,0.8,-0.5,1.2,-0.9c0.4,-0.4,0.6,-0.8,0.6,-1.3l0,-21.6c0,-0.6,-0.3,-1.2,-0.7,-1.6C124,31.5,123,31,122.9,31l17.2,0L140,34.2c-0.3,-0.5,-0.6,-0.8,-1.1,-1c-0.6,-0.4,-1,-0.5,-1.7,-0.5Z" class="g3_2" />
<path d="M141.7,48.5c0,3.7,1.1,8.2,5.5,8.3c4.1,0,5.3,-4.8,5.3,-8.5c-0.1,-3.7,-1.8,-8.2,-5.5,-8.1c-4.1,0,-5.3,4.5,-5.3,8.3m14.4,-0.1c0,4.9,-3.9,9.7,-9,9.6c-5.3,0,-9,-4.4,-9,-9.5c0,-4.9,3.7,-9.6,9,-9.6c5.2,0,9,4.6,9,9.5Z" class="g3_2" />
<path d="M163.1,56c0,0.4,0.2,0.6,0.5,0.9c0.2,0.2,0.4,0.4,0.8,0.5l-5.6,0c0.1,0,0.6,-0.3,0.8,-0.5c0.2,-0.2,0.4,-0.5,0.4,-0.8l0,-15.3c0,-0.4,-0.3,-0.6,-0.6,-0.8c-0.3,-0.2,-0.9,-0.4,-1,-0.4l4.7,-1.2l0,3.9c1.4,-1.7,3.1,-3.6,4.9,-3.6c0.6,0.1,1,0.2,1.6,0.5l0,2.8c-0.9,-0.5,-1.5,-0.7,-2.6,-0.7c-1.2,0,-2.7,0.8,-3.9,2.2Z" class="g3_2" />
<path d="M172.4,40.7l5,-5l0,3.5l5.4,0l0,1.6l-5.5,0l0,12.1c0,1.8,1.7,3.4,3.7,3.4c1.8,0,2.7,-0.9,2.9,-1.1c0,0.1,-0.6,2.8,-4.3,2.9c-3,0,-5.3,-2.1,-5.3,-5.3l0,-12.1Z" class="g3_2" />
<path d="M191.3,56c0,0.4,0.2,0.6,0.4,0.9c0.2,0.2,0.5,0.4,0.8,0.5l-5.5,0c0,0,0.5,-0.3,0.8,-0.5c0.2,-0.2,0.3,-0.5,0.3,-0.8l0,-15.3c0,-0.4,-0.3,-0.6,-0.5,-0.8c-0.4,-0.2,-1,-0.4,-1.1,-0.4l4.7,-1.2l0,3.9c1.4,-1.7,3.1,-3.6,4.9,-3.6c0.6,0.1,1.1,0.2,1.6,0.5l0,2.8c-0.8,-0.5,-1.5,-0.7,-2.6,-0.7c-1.1,0,-2.7,0.8,-3.9,2.2Z" class="g3_2" />
<path d="M213,45.5c0.3,-1.6,-1.5,-5.1,-4.3,-5.2c-4,0,-5.5,4.3,-5.4,5.2Zm3.5,6.6c0,0,-0.7,5.9,-8.1,6c-4.9,0,-8.8,-4.1,-8.9,-9.5c0,-5.1,3.9,-9.6,9.3,-9.4c7,0.1,7.8,6.5,7.8,8l-13.4,0c-1,2.8,1.4,8.3,6.5,8.5c4.4,0.2,6.8,-3.6,6.8,-3.6Z" class="g3_2" />
<path d="M229.7,44.4c0,-0.1,-0.9,-4,-4.5,-4.1c-1.7,0,-3.4,0.4,-3.4,2.3c0,2.3,3.2,3.7,5.1,4.6c2.6,1.2,4.5,3.8,4.4,5.5c-0.2,3.1,-2.7,5.3,-6.7,5.3c-2.3,0,-4.5,-0.8,-5.5,-1.6l0,-4.9c0,0,1.8,5.2,5.6,5.1c1.4,0,3.5,-1,3.4,-3.3c0,-1.5,-1.6,-3,-3.5,-3.8c-2.8,-1.2,-5.6,-2.9,-5.5,-5.9c0,-3.1,2.9,-4.8,6,-4.7c3.2,0,4.6,1.5,4.6,1.5Z" class="g3_2" />
<path d="M243.7,44.4c0,-0.1,-0.9,-4,-4.5,-4.1c-1.7,0,-3.4,0.4,-3.4,2.3c0,2.3,3.2,3.7,5.1,4.6c2.6,1.2,4.5,3.8,4.4,5.5c-0.2,3.1,-2.7,5.3,-6.7,5.3c-2.3,0,-4.5,-0.8,-5.5,-1.6l0,-4.9c0,0,1.8,5.2,5.6,5.1c1.4,0,3.5,-1,3.4,-3.3c0,-1.5,-1.6,-3,-3.5,-3.8c-2.8,-1.2,-5.6,-2.9,-5.5,-5.9c0,-3.1,2.9,-4.8,6,-4.7c3.2,0,4.6,1.5,4.6,1.5Z" class="g3_2" />
<path d="M124.5,65.3c0,-0.4,-0.1,-0.7,-0.1,-1.1c0.3,0,0.6,0,0.8,0c0.3,0,0.6,0,0.8,0c0.5,0,0.9,0,1.2,0c0.4,0,0.6,0,0.7,0c0,0.1,0,0.2,0,0.3c0,0.1,0,0.2,0,0.3c0,0,0,0.1,0,0.2c-0.2,-0.1,-0.3,-0.1,-0.6,-0.1c-0.2,0,-0.4,0,-0.6,0c-0.2,0,-0.3,0,-0.5,0c-0.1,-0.1,-0.3,-0.1,-0.3,-0.1c-0.1,0.4,-0.1,0.7,-0.1,1c0,0.4,0,0.7,0,1c0.4,0,0.8,0,1.1,0c0.3,0,0.6,0,1,0c0,0.1,0,0.1,0,0.2c-0.1,0,-0.1,0.1,-0.1,0.2c0,0,0,0.1,0.1,0.1c0,0.1,0,0.1,0,0.2c-0.7,0,-1.4,-0.1,-2.1,-0.1l0,0.5c0,0.5,0,1,0,1.3c0.1,0.4,0.1,0.8,0.1,1.2c-0.1,0,-0.2,0,-0.3,0l-0.4,0l-0.5,0c-0.1,0,-0.2,0,-0.3,0c0,-0.4,0.1,-0.8,0.1,-1.2c0,-0.3,0,-0.8,0,-1.3l0,-1.2c0,-0.5,0,-1,0,-1.4Z" class="g3_2" />
<path d="M134.8,70.4c-0.3,-0.1,-0.6,-0.2,-0.9,-0.4c-0.2,-0.2,-0.4,-0.5,-0.6,-0.8c-0.1,-0.3,-0.2,-0.6,-0.2,-1c0,-0.3,0,-0.5,0,-0.7c0,-0.2,0,-0.4,0,-0.5c0,-0.2,0,-0.3,0,-0.5c0,-0.1,0,-0.3,0,-0.5c0,-0.5,0,-0.9,0,-1.2c0,-0.3,0,-0.5,0,-0.6c0.1,0,0.2,0,0.4,0c0.1,0,0.2,0,0.3,0c0.2,0,0.3,0,0.4,0c0.1,0,0.3,0,0.4,0c-0.1,0.6,-0.1,1.1,-0.1,1.6c0,0.5,0,1,0,1.5c0,0.6,0,1,0.1,1.4c0.1,0.3,0.2,0.6,0.3,0.8c0.2,0.1,0.4,0.3,0.6,0.3c0.2,0.1,0.5,0.1,0.8,0.1c0.3,0,0.6,-0.1,0.8,-0.3c0.2,-0.1,0.4,-0.4,0.5,-0.7c0.1,-0.3,0.2,-0.6,0.2,-1c0,-0.4,0,-0.8,0,-1.2c0,-0.5,0,-0.9,0,-1.3c0,-0.4,0,-0.8,0,-1.2c0,0,0.1,0,0.2,0c0.1,0,0.2,0,0.2,0c0.1,0,0.2,0,0.2,0c0.1,0,0.2,0,0.3,0c0,0.1,-0.1,0.3,-0.1,0.5c0,0.2,0,0.5,0,0.8c0,0.3,0,0.6,0,0.9c0,0.4,0,0.8,0,1.2c0,1,-0.3,1.8,-0.7,2.2c-0.5,0.5,-1.1,0.7,-2,0.7c-0.4,0,-0.8,0,-1.1,-0.1Z" class="g3_2" />
<path d="M144.2,64.9c0,-0.3,0,-0.5,0,-0.7c0.2,0,0.3,0,0.4,0c0.1,0,0.3,0,0.4,0c0.7,0.7,1.3,1.4,2,2.1c0.6,0.7,1.3,1.4,2,2.2l0,-0.8l0,-0.9c0,-0.3,0,-0.6,0,-0.9c0,-0.2,0,-0.5,0,-0.8c0,-0.2,-0.1,-0.4,-0.1,-0.6c0,-0.2,0,-0.3,0,-0.3c0.2,0,0.3,0,0.4,0c0.1,0,0.3,0,0.4,0c0,0.5,0,1,-0.1,1.5c0,0.4,0,0.8,0,1.2c0,0.4,0,0.8,0,1.2c0,0.4,0,0.8,0,1.2l0,1.1c-0.1,0,-0.3,0,-0.4,0c-0.1,0,-0.2,0,-0.3,0c-1.3,-1.5,-2.6,-2.9,-4,-4.4c0,0.2,0,0.4,0,0.5c0,0.2,0,0.4,0,0.6l0,1c0,0.4,0,0.7,0,1c0,0.2,0,0.4,0,0.6c0,0.2,0,0.3,0,0.4c0,0.1,0,0.2,0,0.3c-0.1,0,-0.1,0,-0.2,0l-0.2,0c-0.2,0,-0.3,0,-0.4,0c0,-0.1,0,-0.2,0,-0.5c0,-0.3,0.1,-0.7,0.1,-1.1c0,-0.4,0,-0.9,0,-1.4c0,-0.5,0.1,-1,0.1,-1.4c0,-0.4,-0.1,-0.8,-0.1,-1.1Z" class="g3_2" />
<path d="M156.6,68.6l0,0.5c0,0.2,0,0.4,0,0.5c0,0.1,0,0.2,0,0.3c0.1,0,0.2,0,0.3,0c0.1,0,0.3,0,0.5,0c0.7,0,1.2,-0.2,1.6,-0.7c0.4,-0.5,0.6,-1.2,0.6,-2.1c0,-0.4,0,-0.7,-0.1,-1c-0.1,-0.3,-0.3,-0.6,-0.5,-0.8c-0.1,-0.2,-0.4,-0.3,-0.6,-0.4c-0.3,-0.2,-0.5,-0.2,-0.9,-0.2c-0.2,0,-0.4,0,-0.5,0c-0.1,0,-0.3,0,-0.4,0c0,0.1,0,0.2,0,0.3c0,0.2,0,0.3,0,0.5l0,0.5l0,0.5l0,1.6Zm-1.4,-3.3c0,-0.3,0,-0.7,0,-1.1c0.1,0,0.2,0,0.3,0c0.1,0,0.3,0,0.4,0c0.2,0,0.4,0,0.7,0c0.2,0,0.6,0,1,0c0.5,0,1,0,1.4,0.1c0.4,0.1,0.8,0.3,1.1,0.5c0.3,0.2,0.5,0.5,0.7,0.9c0.2,0.4,0.3,0.8,0.3,1.4c0,0.5,-0.1,1,-0.3,1.4c-0.2,0.4,-0.4,0.7,-0.7,1c-0.3,0.3,-0.6,0.5,-1,0.7c-0.4,0.1,-0.8,0.2,-1.2,0.2c-0.4,0,-0.8,0,-1.2,0c-0.3,0,-0.6,0,-0.8,0l-0.4,0c-0.1,0,-0.2,0,-0.3,0c0,-0.4,0,-0.8,0,-1.2c0,-0.3,0,-0.8,0,-1.3l0,-1.2c0,-0.5,0,-1,0,-1.4Z" class="g3_2" />
<path d="M170.4,68.4c0,0.6,-0.1,1.3,-0.1,2c-0.1,0,-0.1,0,-0.2,0l-0.2,0l-0.2,0c-0.1,0,-0.2,0,-0.3,0c0.2,-1,0.4,-2.1,0.6,-3.1c0.1,-1,0.2,-2.1,0.4,-3.1c0,0,0.1,0,0.2,0c0,0,0.1,0,0.1,0c0.1,0,0.2,0,0.2,0c0.1,0,0.1,0,0.2,0c0.2,0.3,0.3,0.7,0.5,1.1c0.2,0.4,0.4,0.7,0.6,1.1c0.1,0.4,0.3,0.7,0.5,1.1c0.2,0.3,0.3,0.7,0.5,1c0.4,-0.7,0.7,-1.4,1.1,-2.1c0.4,-0.8,0.7,-1.5,1,-2.2c0.2,0,0.3,0,0.4,0c0.1,0,0.3,0,0.4,0c0.1,0.5,0.1,1,0.2,1.6c0.1,0.6,0.1,1.2,0.2,1.8c0.1,0.6,0.1,1.1,0.2,1.6c0.1,0.5,0.1,0.9,0.2,1.2c-0.1,0,-0.3,0,-0.4,0l-0.4,0l-0.3,0c-0.2,0,-0.3,0,-0.4,0c0,-0.6,-0.1,-1.3,-0.2,-2c0,-0.8,-0.1,-1.5,-0.2,-2.2c-0.3,0.7,-0.7,1.4,-1,2.1c-0.3,0.7,-0.7,1.4,-1,2.1c0,0,-0.1,0,-0.1,0l-0.1,0l-0.1,0c-0.4,-0.7,-0.7,-1.4,-1,-2c-0.3,-0.7,-0.7,-1.4,-1,-2.1c-0.1,0.7,-0.2,1.4,-0.3,2.1Z" class="g3_2" />
<path d="M183.9,65.9c-0.1,0.3,-0.3,0.7,-0.4,1c-0.2,0.4,-0.3,0.8,-0.4,1.1l1.6,0c-0.1,-0.3,-0.2,-0.7,-0.4,-1.1c-0.1,-0.3,-0.2,-0.7,-0.4,-1m3.2,4.5c-0.1,0,-0.3,0,-0.4,0l-0.4,0l-0.4,0c-0.1,0,-0.2,0,-0.3,0c-0.1,-0.3,-0.2,-0.6,-0.3,-0.9c-0.1,-0.3,-0.3,-0.6,-0.4,-0.9c-0.2,0,-0.4,0,-0.5,-0.1c-0.2,0,-0.4,0,-0.6,0c-0.2,0,-0.3,0,-0.5,0c-0.2,0.1,-0.3,0.1,-0.5,0.1c-0.1,0.3,-0.2,0.6,-0.3,0.9c-0.1,0.3,-0.2,0.6,-0.3,0.9c-0.1,0,-0.1,0,-0.2,0l-0.2,0l-0.2,0c-0.1,0,-0.2,0,-0.3,0c0.1,-0.2,0.2,-0.4,0.3,-0.7c0.1,-0.2,0.3,-0.6,0.4,-0.9c0.2,-0.4,0.3,-0.7,0.5,-1.1c0.2,-0.4,0.3,-0.8,0.5,-1.2c0.1,-0.5,0.3,-0.9,0.5,-1.3c0.1,-0.4,0.3,-0.7,0.4,-1.1c0.1,0,0.1,0,0.2,0.1c0,0,0.1,0,0.2,0c0,0,0.1,0,0.1,0c0.1,-0.1,0.1,-0.1,0.2,-0.1c0.2,0.5,0.4,1.1,0.6,1.7c0.2,0.6,0.5,1.1,0.7,1.7c0.2,0.6,0.4,1.1,0.7,1.6c0.2,0.5,0.4,0.9,0.5,1.3Z" class="g3_2" />
<path d="M192.1,64.9c0,-0.3,0,-0.5,0,-0.7c0.2,0,0.3,0,0.4,0c0.1,0,0.2,0,0.4,0c0.7,0.7,1.3,1.4,2,2.1c0.6,0.7,1.3,1.4,2,2.2l0,-0.8l0,-0.9c0,-0.3,0,-0.6,0,-0.9c0,-0.2,0,-0.5,-0.1,-0.8c0,-0.2,0,-0.4,0,-0.6c0,-0.2,0,-0.3,0,-0.3c0.2,0,0.3,0,0.4,0c0.1,0,0.2,0,0.4,0c0,0.5,0,1,-0.1,1.5c0,0.4,0,0.8,0,1.2c0,0.4,0,0.8,0,1.2c0,0.4,0,0.8,0,1.2l0,1.1c-0.2,0,-0.3,0,-0.4,0c-0.1,0,-0.3,0,-0.4,0c-1.2,-1.5,-2.5,-2.9,-3.9,-4.4c0,0.2,0,0.4,0,0.5c0,0.2,0,0.4,0,0.6l0,1c0,0.4,0,0.7,0,1c0,0.2,0,0.4,0,0.6c0,0.2,0,0.3,0,0.4c0,0.1,0,0.2,0,0.3c-0.1,0,-0.1,0,-0.2,0l-0.2,0c-0.2,0,-0.3,0,-0.4,0c0,-0.1,0,-0.2,0,-0.5c0,-0.3,0.1,-0.7,0.1,-1.1c0,-0.4,0,-0.9,0,-1.4c0,-0.5,0,-1,0,-1.4c0,-0.4,0,-0.8,0,-1.1Z" class="g3_2" />
<path d="M204.9,65.9c-0.2,0.3,-0.3,0.7,-0.5,1c-0.1,0.4,-0.2,0.8,-0.4,1.1l1.7,0c-0.1,-0.3,-0.3,-0.7,-0.4,-1.1c-0.1,-0.3,-0.3,-0.7,-0.4,-1m3.2,4.5c-0.2,0,-0.3,0,-0.4,0l-0.4,0l-0.4,0c-0.1,0,-0.3,0,-0.4,0c-0.1,-0.3,-0.2,-0.6,-0.3,-0.9c-0.1,-0.3,-0.2,-0.6,-0.3,-0.9c-0.2,0,-0.4,0,-0.6,-0.1c-0.2,0,-0.4,0,-0.6,0c-0.1,0,-0.3,0,-0.4,0c-0.2,0.1,-0.4,0.1,-0.5,0.1c-0.1,0.3,-0.2,0.6,-0.4,0.9c-0.1,0.3,-0.1,0.6,-0.2,0.9c-0.1,0,-0.2,0,-0.2,0l-0.3,0l-0.2,0c0,0,-0.1,0,-0.2,0c0.1,-0.2,0.2,-0.4,0.3,-0.7c0.1,-0.2,0.2,-0.6,0.4,-0.9c0.1,-0.4,0.3,-0.7,0.4,-1.1c0.2,-0.4,0.4,-0.8,0.5,-1.2c0.2,-0.5,0.4,-0.9,0.5,-1.3c0.2,-0.4,0.3,-0.7,0.5,-1.1c0,0,0.1,0,0.1,0.1c0.1,0,0.2,0,0.2,0c0.1,0,0.1,0,0.2,0c0,-0.1,0.1,-0.1,0.2,-0.1c0.2,0.5,0.4,1.1,0.6,1.7c0.2,0.6,0.4,1.1,0.7,1.7c0.2,0.6,0.4,1.1,0.6,1.6c0.2,0.5,0.4,0.9,0.6,1.3Z" class="g3_2" />
<path d="M217.1,64.9c-0.3,-0.2,-0.7,-0.3,-1.1,-0.3c-0.3,0,-0.5,0.1,-0.8,0.2c-0.3,0.1,-0.5,0.3,-0.8,0.5c-0.2,0.3,-0.3,0.5,-0.5,0.9c-0.1,0.4,-0.2,0.8,-0.2,1.2c0,0.4,0.1,0.7,0.2,1.1c0.1,0.3,0.2,0.5,0.4,0.8c0.2,0.2,0.4,0.4,0.7,0.5c0.3,0.1,0.6,0.2,0.9,0.2c0.1,0,0.2,0,0.3,0c0.1,0,0.2,-0.1,0.3,-0.1c0.1,0,0.2,0,0.3,0c0,0,0.1,-0.1,0.1,-0.1c0,-0.1,0,-0.1,0,-0.3c0,-0.1,0.1,-0.2,0.1,-0.3c0,-0.5,-0.1,-0.9,-0.1,-1.1c0,-0.2,0,-0.4,0,-0.5c0,0,0.1,0,0.2,0.1c0.1,0,0.3,0,0.5,0c0.2,0,0.3,0,0.4,0c0.2,-0.1,0.2,-0.1,0.3,-0.1c0,0.1,0,0.1,0,0.3c0,0.1,-0.1,0.2,-0.1,0.3c0,0.2,0,0.3,0,0.5c0,0.1,0,0.3,0,0.4l0,0.3c0,0.2,0,0.3,0,0.5c0,0.1,0,0.2,0,0.2c-0.3,0.2,-0.8,0.2,-1.2,0.3c-0.4,0.1,-0.8,0.1,-1.2,0.1c-0.5,0,-1,-0.1,-1.4,-0.2c-0.5,-0.1,-0.8,-0.3,-1.2,-0.6c-0.3,-0.3,-0.5,-0.6,-0.7,-0.9c-0.2,-0.4,-0.3,-0.8,-0.3,-1.3c0,-0.6,0.1,-1.1,0.3,-1.5c0.2,-0.4,0.5,-0.8,0.8,-1.1c0.3,-0.3,0.7,-0.5,1.2,-0.6c0.5,-0.2,1,-0.2,1.5,-0.2c0.5,0,0.9,0,1.2,0.1c0.3,0.1,0.7,0.2,1,0.4c-0.1,0.2,-0.1,0.3,-0.2,0.5c0,0.1,0,0.3,-0.1,0.4l-0.1,0c-0.2,-0.3,-0.4,-0.5,-0.7,-0.6Z" class="g3_2" />
<path d="M223.6,65.3c0,-0.4,-0.1,-0.7,-0.1,-1.1c0.3,0,0.6,0,0.8,0c0.3,0,0.6,0,0.8,0c0.5,0,0.9,0,1.2,0c0.4,0,0.6,0,0.7,0c0,0.1,0,0.2,0,0.3c0,0.1,0,0.2,0,0.3c0,0,0,0.1,0,0.2c-0.1,-0.1,-0.3,-0.1,-0.5,-0.1c-0.2,0,-0.4,0,-0.6,0c-0.2,0,-0.4,0,-0.6,0c-0.1,-0.1,-0.2,-0.1,-0.3,-0.1c0,0.4,0,0.7,0,1c-0.1,0.4,-0.1,0.7,-0.1,1c0.4,0,0.8,0,1.1,0c0.3,0,0.7,0,1,0c0,0.1,0,0.1,0,0.2c0,0,0,0.1,0,0.2c0,0,0,0.1,0,0.1c0,0.1,0,0.1,0,0.2c-0.7,0,-1.4,-0.1,-2.1,-0.1c0,0.2,0,0.4,0,0.6c0,0.2,0,0.4,0,0.6c0,0.4,0,0.8,0.1,1.1c0.3,0,0.7,0,1,0c0.3,0,0.7,0,1,-0.1c0,0.1,0,0.1,0,0.2c0,0.1,0,0.1,0,0.2c0,0.1,0,0.2,0,0.3c0,0,0,0.1,0,0.1c-0.1,0,-0.3,0,-0.6,0c-0.2,0,-0.5,0,-0.9,0l-0.9,0l-0.6,0c-0.1,0,-0.2,0,-0.3,0c-0.1,0,-0.1,0,-0.2,0c0,-0.4,0.1,-0.8,0.1,-1.2c0,-0.3,0,-0.8,0,-1.3l0,-1.2c0,-0.5,0,-1,0,-1.4Z" class="g3_2" />
<path d="M234.9,65.2c0,-0.1,-0.1,-0.2,-0.2,-0.3c-0.1,-0.1,-0.3,-0.2,-0.5,-0.2c-0.1,0,-0.4,0,-0.6,0c0,0.8,0,1.6,0,2.4c0,0.1,0,0.1,0.1,0.1l0.1,0c0.4,0,0.7,-0.1,0.9,-0.4c0.2,-0.2,0.3,-0.5,0.3,-0.9c0,-0.3,0,-0.5,-0.1,-0.7m-1.3,2.3l0,0.4c0,0.5,0,1,0,1.3c0,0.4,0,0.8,0,1.2c-0.1,0,-0.2,0,-0.3,0l-0.4,0l-0.4,0c-0.1,0,-0.2,0,-0.3,0c0,-0.4,0,-0.8,0,-1.2c0,-0.3,0,-0.8,0,-1.3l0,-1.2c0,-0.5,0,-1,0,-1.4c0,-0.4,0,-0.7,0,-1.1c0.1,0,0.2,0,0.3,0c0.1,0,0.2,0,0.4,0c0.2,0,0.3,0,0.6,0c0.2,0,0.4,0,0.7,0c0.3,0,0.5,0,0.6,0c0.2,0,0.3,0,0.4,0c0.2,0.1,0.3,0.1,0.4,0.1c0,0.1,0.1,0.1,0.2,0.2c0.2,0.1,0.3,0.3,0.4,0.5c0.1,0.2,0.2,0.4,0.2,0.7c0,0.4,-0.1,0.8,-0.4,1.1c-0.2,0.2,-0.6,0.4,-1,0.5c0.3,0.6,0.6,1.1,0.9,1.6c0.4,0.5,0.7,1,1,1.5c-0.1,0,-0.3,0,-0.4,0l-0.4,0l-0.4,0c-0.1,0,-0.3,0,-0.4,0l-1.6,-2.9Z" class="g3_2" />
<path d="M243.4,64.6c-0.3,0,-0.6,0.1,-0.7,0.3c-0.2,0.1,-0.3,0.3,-0.3,0.5c0,0.3,0.1,0.4,0.2,0.6c0.1,0.1,0.3,0.2,0.5,0.4c0.2,0.1,0.5,0.2,0.7,0.3c0.2,0.1,0.4,0.2,0.7,0.4c0.2,0.1,0.3,0.3,0.5,0.5c0.1,0.3,0.2,0.5,0.2,0.9c0,0.3,-0.1,0.6,-0.2,0.8c-0.1,0.3,-0.3,0.5,-0.5,0.7c-0.2,0.1,-0.5,0.3,-0.7,0.4c-0.3,0.1,-0.7,0.1,-1,0.1c-0.4,0,-0.7,0,-0.9,-0.1c-0.3,-0.1,-0.5,-0.1,-0.6,-0.3c0.1,-0.2,0.1,-0.4,0.2,-0.5c0,-0.2,0,-0.4,0.1,-0.6l0.1,0c0.1,0.1,0.1,0.3,0.2,0.4c0,0.1,0.1,0.2,0.2,0.3c0.1,0.1,0.3,0.1,0.4,0.2c0.1,0,0.3,0.1,0.5,0.1c0.4,0,0.6,-0.1,0.8,-0.3c0.2,-0.2,0.3,-0.4,0.3,-0.6c0,-0.3,-0.1,-0.5,-0.2,-0.6c-0.2,-0.2,-0.3,-0.3,-0.5,-0.4c-0.2,-0.1,-0.5,-0.2,-0.7,-0.3c-0.2,-0.1,-0.5,-0.3,-0.7,-0.4c-0.2,-0.2,-0.3,-0.3,-0.5,-0.6c-0.1,-0.2,-0.2,-0.5,-0.2,-0.8c0,-0.3,0.1,-0.6,0.2,-0.8c0.1,-0.3,0.3,-0.5,0.5,-0.7c0.2,-0.1,0.4,-0.2,0.6,-0.3c0.3,-0.1,0.5,-0.1,0.8,-0.1c0.3,0,0.6,0,0.8,0.1c0.3,0,0.5,0.2,0.7,0.3c-0.1,0.1,-0.1,0.3,-0.2,0.4c0,0.1,-0.1,0.3,-0.1,0.5l-0.1,0c-0.2,-0.5,-0.6,-0.8,-1.1,-0.8Z" class="g3_2" />
<path d="M906,181l-214,0l0,-62l214,0l0,62Z" class="g4_2" />
<path d="M691,119l215,0l0,22l-215,0l0,-22Z" class="g5_2" />
<path d="M45,147l638,0l0,22L45,169l0,-22Z" class="g5_2" />
<path d="M45,867l830,0l0,22L45,889l0,-22Z" class="g5_2" />
<g clip-path="url(#c0_2)">
<path d="M918.5,1211.5l0,-27" class="g6_2" />
<path d="M918.5,1181.5l0,-1187" class="g7_2" />
</g>
</svg>